<?xml version="1.0" encoding="UTF-8"?> <svg xmlns="http://www.w3.org/2000/svg" width="25" height="25" viewBox="0 0 25 25" fill="none"> <path d="M25 12.4923C25.0017 15.3271 24.0398 18.0784 22.2721 20.2946C20.5044 22.5108 18.0358 24.0603 15.2715 24.6889C12.5072 25.3174 9.61132 24.9877 7.0591 23.7537C4.50687 22.5198 2.44989 20.455 1.22566 17.8981C0.00144164 15.3412 -0.317293 12.4441 0.321759 9.68217C0.960812 6.92028 2.51969 4.45763 4.7426 2.69833C6.96551 0.939037 9.72043 -0.0124079 12.5553 0.000122196C15.3901 0.0126523 18.1365 0.988425 20.3438 2.7673C20.5083 2.89855 20.6708 3.03605 20.8271 3.18397C22.14 4.35331 23.1905 5.78723 23.9097 7.39152C24.6289 8.99582 25.0005 10.7342 25 12.4923Z" fill="#F25D96"></path> <path d="M10.6283 5.00905H10.9804C11.2137 5.12364 11.4491 5.23195 11.6783 5.35487C11.8272 5.43817 11.9712 5.53 12.1095 5.62988C12.2215 5.71705 12.3593 5.76441 12.5012 5.76441C12.6431 5.76441 12.7809 5.71705 12.8929 5.62988C13.2554 5.39863 13.5908 5.1153 14.022 5.00488H14.372C14.3937 5.01516 14.416 5.02423 14.4387 5.03199C14.6032 5.06671 14.758 5.13713 14.8923 5.23829C15.0266 5.33945 15.137 5.46884 15.2158 5.61737L15.3554 5.87987C15.4116 5.81529 15.4491 5.75903 15.497 5.7132C15.6408 5.55702 15.8016 5.41727 15.9762 5.29653C16.194 5.18434 16.4205 5.08962 16.6533 5.01322H17.0699C17.4358 5.07828 17.773 5.25343 18.0366 5.51529C18.5199 6.00904 19.0116 6.49445 19.4949 6.97362C19.6892 7.16514 19.8324 7.4022 19.9116 7.66322C19.9387 7.75072 19.9595 7.84031 19.9824 7.92989V8.34655C19.9824 8.35905 19.9616 8.36946 19.9595 8.38196C19.9026 8.74589 19.7233 9.07954 19.4512 9.3278C19.3429 9.42988 19.2304 9.53612 19.1179 9.63404C19.2866 9.74237 19.4366 9.82157 19.572 9.92365C19.786 10.105 19.9327 10.353 19.9887 10.6278V10.9778C19.8783 11.2028 19.7804 11.4319 19.6574 11.6528C19.5726 11.8059 19.4779 11.9535 19.3741 12.0945C19.283 12.2099 19.2335 12.3527 19.2335 12.4997C19.2335 12.6467 19.283 12.7894 19.3741 12.9049C19.6054 13.2611 19.8845 13.5924 19.9991 14.0195V14.3694C19.9482 14.5936 19.8415 14.8013 19.6889 14.9732C19.5363 15.1451 19.3427 15.2757 19.1262 15.3528C18.9491 15.4299 18.7824 15.5319 18.6074 15.6194C18.4927 15.6692 18.3971 15.7547 18.3347 15.8632C18.2724 15.9717 18.2468 16.0973 18.2616 16.2216C18.2783 16.5049 18.2949 16.7861 18.3012 17.0694C18.3106 17.2319 18.2855 17.3945 18.2276 17.5465C18.1696 17.6985 18.0801 17.8365 17.965 17.9514C17.8499 18.0664 17.7117 18.1556 17.5596 18.2133C17.4074 18.271 17.2448 18.2958 17.0824 18.2861C16.8012 18.2861 16.5179 18.2653 16.2366 18.2486C16.1124 18.2335 15.9865 18.2588 15.8777 18.3207C15.7689 18.3826 15.6829 18.4778 15.6324 18.5924C15.5033 18.8444 15.372 19.0945 15.2429 19.3445C15.1319 19.5693 14.9494 19.751 14.7241 19.8611C14.6158 19.9111 14.497 19.9444 14.3845 19.984H14.0345C13.8074 19.8757 13.5804 19.7757 13.3595 19.6528C13.2101 19.5715 13.0667 19.4796 12.9304 19.3778C12.8123 19.2828 12.6653 19.2309 12.5137 19.2309C12.3621 19.2309 12.2151 19.2828 12.097 19.3778C11.747 19.609 11.4158 19.884 10.9949 19.9861H10.6429C10.6219 19.9758 10.6003 19.9668 10.5783 19.959C10.4109 19.924 10.2535 19.8519 10.1175 19.7481C9.98164 19.6442 9.8707 19.5113 9.79286 19.359C9.75327 19.2882 9.71577 19.2153 9.6616 19.1153C9.57827 19.207 9.50953 19.2861 9.43661 19.3632C9.25584 19.5747 9.03024 19.7434 8.77619 19.857C8.64077 19.909 8.50119 19.9444 8.35952 19.9861H7.94286C7.42827 19.9049 7.0637 19.5882 6.71787 19.2278C6.32828 18.8111 5.92202 18.4257 5.52202 18.0278C5.3218 17.834 5.1729 17.5934 5.0887 17.3278C5.06162 17.2403 5.04286 17.1507 5.01995 17.0632V16.6466C5.09924 16.2338 5.31495 15.8595 5.63245 15.584C5.71578 15.5111 5.79703 15.434 5.89078 15.3486C5.83314 15.322 5.77745 15.2914 5.72411 15.2569C5.55389 15.1482 5.39723 15.0195 5.25745 14.8736C5.15638 14.7153 5.07652 14.5444 5.01995 14.3653V14.0153C5.12828 13.7903 5.22828 13.5611 5.34912 13.3403C5.43446 13.1874 5.52908 13.04 5.63245 12.8987C5.72352 12.7832 5.77306 12.6405 5.77306 12.4934C5.77306 12.3464 5.72352 12.2036 5.63245 12.0882C5.4012 11.732 5.12203 11.4007 5.00745 10.9736V10.6236C5.05775 10.3998 5.16402 10.1923 5.31632 10.0207C5.46862 9.84908 5.66197 9.71892 5.87828 9.64238C6.05744 9.56321 6.22411 9.46321 6.39911 9.37571C6.51344 9.32494 6.6085 9.23892 6.67036 9.13019C6.73222 9.02147 6.75764 8.89578 6.74287 8.77156C6.7262 8.48823 6.71162 8.20697 6.70537 7.92363C6.69599 7.7614 6.72103 7.59901 6.77885 7.44715C6.83668 7.29529 6.92598 7.15739 7.04088 7.04249C7.15579 6.92758 7.2937 6.83827 7.44556 6.78044C7.59742 6.72262 7.7598 6.69757 7.92203 6.70695C8.20536 6.70695 8.48661 6.7299 8.76786 6.74449C8.89237 6.75939 9.01838 6.73406 9.12746 6.67221C9.23654 6.61036 9.32298 6.5152 9.37412 6.4007C9.50328 6.14446 9.63661 5.8903 9.76994 5.63614C9.88011 5.41711 10.0595 5.24062 10.2804 5.13407C10.397 5.07991 10.5158 5.04864 10.6283 5.00905ZM19.4012 8.13405C19.4009 7.99531 19.3725 7.85808 19.3177 7.73061C19.2629 7.60314 19.1829 7.48806 19.0824 7.39237C18.5991 6.91182 18.1172 6.42989 17.6366 5.94655C17.5418 5.83391 17.4234 5.74337 17.2899 5.68125C17.1564 5.61913 17.0109 5.58695 16.8637 5.58695C16.7164 5.58695 16.571 5.61913 16.4374 5.68125C16.3039 5.74337 16.1856 5.83391 16.0908 5.94655L11.9762 10.059L5.95119 16.0861C5.84034 16.181 5.75135 16.2987 5.69033 16.4313C5.62931 16.5638 5.59772 16.7079 5.59772 16.8538C5.59772 16.9997 5.62931 17.1439 5.69033 17.2764C5.75135 17.409 5.84034 17.5267 5.95119 17.6216C6.43244 18.1028 6.90952 18.5924 7.40952 19.0632C7.54949 19.1966 7.71852 19.2958 7.90328 19.3528C8.08781 19.4029 8.28285 19.3986 8.46502 19.3406C8.6472 19.2826 8.80877 19.1733 8.93037 19.0257L18.5929 9.36111C18.7658 9.18819 18.9387 9.01737 19.1095 8.84445C19.2953 8.65451 19.3999 8.39975 19.4012 8.13405ZM13.5366 7.61947C12.7861 7.45036 12.0061 7.4632 11.2616 7.65696C10.8085 7.77435 10.3739 7.95384 9.96995 8.1903C9.92146 8.22345 9.86409 8.24117 9.80536 8.24117C9.74662 8.24117 9.68926 8.22345 9.64078 8.1903C9.59214 8.16538 9.55369 8.12431 9.53202 8.07413C9.51035 8.02396 9.50682 7.96779 9.52203 7.91529C9.56336 7.81261 9.63633 7.72579 9.73036 7.66739C10.3605 7.29879 11.0578 7.05973 11.7816 6.96421C12.5053 6.86869 13.2408 6.91866 13.9449 7.11115C13.9846 7.1258 14.0277 7.12803 14.0686 7.11761C14.1095 7.1072 14.1463 7.08462 14.1741 7.05281C14.322 6.89031 14.4824 6.74032 14.6387 6.58615C14.9262 6.29657 14.9262 6.29654 14.7304 5.93404C14.6963 5.85515 14.6448 5.78505 14.5796 5.72901C14.5145 5.67298 14.4375 5.63248 14.3544 5.61061C14.2713 5.58873 14.1843 5.58608 14.1 5.60277C14.0157 5.61946 13.9363 5.6551 13.8679 5.70699C13.6324 5.85282 13.4012 6.00697 13.1658 6.1528C12.9727 6.28863 12.7424 6.36154 12.5064 6.36154C12.2704 6.36154 12.0401 6.28863 11.847 6.1528C11.6137 6.0028 11.3804 5.85074 11.1449 5.7049C11.0765 5.65507 10.9979 5.62116 10.9146 5.60572C10.8314 5.59028 10.7458 5.59371 10.6641 5.61569C10.5824 5.63767 10.5066 5.67768 10.4424 5.73278C10.3781 5.78787 10.327 5.85662 10.2929 5.93404C10.1616 6.18404 10.0366 6.43823 9.90536 6.68615C9.80427 6.89665 9.64149 7.0714 9.43867 7.18714C9.23585 7.30288 9.0026 7.35409 8.76994 7.33403C8.49078 7.32153 8.2137 7.30488 7.93661 7.29655C7.85236 7.28771 7.76721 7.29782 7.68736 7.3261C7.60751 7.35438 7.53498 7.40012 7.47508 7.46002C7.41519 7.51992 7.36943 7.59247 7.34115 7.67232C7.31287 7.75217 7.30277 7.8373 7.31161 7.92155C7.31161 8.19863 7.33661 8.47571 7.34911 8.75488C7.37194 8.98981 7.32152 9.22605 7.20477 9.4312C7.08803 9.63635 6.91067 9.80035 6.69703 9.90071C6.45119 10.032 6.20328 10.1549 5.95745 10.2841C5.87866 10.3179 5.80852 10.369 5.7523 10.4338C5.69608 10.4985 5.65523 10.5751 5.63279 10.6579C5.61035 10.7406 5.6069 10.8273 5.62272 10.9116C5.63853 10.9959 5.6732 11.0755 5.72411 11.1445C5.87203 11.3799 6.02411 11.6132 6.17202 11.8466C6.30728 12.0398 6.37983 12.27 6.37983 12.5059C6.37983 12.7418 6.30728 12.972 6.17202 13.1653C6.01577 13.4132 5.85327 13.6549 5.70327 13.9049C5.66143 13.9697 5.63355 14.0426 5.6214 14.1188C5.60924 14.1951 5.61309 14.273 5.63269 14.3476C5.65228 14.4223 5.68719 14.492 5.73521 14.5525C5.78323 14.6129 5.8433 14.6627 5.91161 14.6986C6.01161 14.757 6.11995 14.8028 6.21995 14.8632C6.23378 14.8744 6.24977 14.8826 6.26692 14.8873C6.28407 14.892 6.30201 14.8931 6.31961 14.8906C6.33722 14.888 6.3541 14.8819 6.36922 14.8725C6.38433 14.8632 6.39734 14.8507 6.40744 14.8361C6.63036 14.6049 6.85953 14.3757 7.09078 14.1528C7.11764 14.1297 7.13667 14.0989 7.14525 14.0646C7.15384 14.0302 7.15154 13.9941 7.13869 13.9611C6.94241 13.2478 6.89163 12.5023 6.98933 11.7689C7.08704 11.0356 7.33126 10.3294 7.70745 9.69238C7.73387 9.65074 7.76859 9.615 7.80946 9.5874C7.85032 9.5598 7.89645 9.54092 7.94494 9.53196C8.04731 9.53843 8.14307 9.58484 8.21161 9.66115C8.24793 9.70793 8.26765 9.76545 8.26765 9.82467C8.26765 9.8839 8.24793 9.94142 8.21161 9.9882C7.58519 11.062 7.38237 12.331 7.64287 13.5465L13.5366 7.61947ZM16.6616 17.6736C16.7699 17.6736 16.9345 17.6924 17.0991 17.6965C17.1811 17.7034 17.2636 17.6925 17.341 17.6643C17.4183 17.6361 17.4885 17.5913 17.5468 17.5333C17.6051 17.4752 17.65 17.4051 17.6785 17.3279C17.707 17.2507 17.7183 17.1681 17.7116 17.0861C17.7116 16.809 17.6908 16.532 17.6741 16.2528C17.6492 16.0154 17.6988 15.7762 17.8161 15.5682C17.9333 15.3603 18.1123 15.194 18.3283 15.0924C18.5741 14.9632 18.8241 14.8403 19.0679 14.7111C19.1468 14.6772 19.217 14.6258 19.2733 14.5608C19.3295 14.4958 19.3703 14.4189 19.3925 14.3359C19.4148 14.2529 19.4179 14.166 19.4018 14.0816C19.3856 13.9972 19.3505 13.9175 19.2991 13.8486C19.1554 13.6215 19.0116 13.3965 18.8658 13.1715C18.721 12.9727 18.643 12.7331 18.643 12.4872C18.643 12.2412 18.721 12.0016 18.8658 11.8028C19.0179 11.5716 19.1699 11.3382 19.3137 11.1007C19.3581 11.035 19.3881 10.9607 19.4016 10.8826C19.4152 10.8045 19.412 10.7244 19.3923 10.6476C19.3726 10.5708 19.3369 10.4991 19.2874 10.4371C19.2379 10.3752 19.1759 10.3244 19.1054 10.2882C19.0033 10.232 18.897 10.1841 18.797 10.1236C18.7847 10.1143 18.7705 10.1076 18.7554 10.104C18.7403 10.1004 18.7247 10.1 18.7094 10.1027C18.6941 10.1055 18.6796 10.1113 18.6667 10.1199C18.6538 10.1285 18.6429 10.1397 18.6345 10.1528C18.4137 10.3799 18.1908 10.6049 17.9616 10.8236C17.9291 10.8505 17.9056 10.8866 17.894 10.9271C17.8825 10.9677 17.8836 11.0108 17.897 11.0507C18.0908 11.738 18.1411 12.4577 18.0449 13.1653C17.946 14.0557 17.6287 14.908 17.1214 15.6465C16.6141 16.385 15.9323 16.9868 15.1366 17.3986C13.8945 18.0893 12.4297 18.2608 11.0616 17.8757C11.0218 17.8613 10.9785 17.8594 10.9376 17.8702C10.8967 17.881 10.86 17.904 10.8324 17.9361C10.6845 18.0986 10.5241 18.2486 10.3699 18.4049C10.2783 18.4986 10.1345 18.5861 10.1179 18.6924C10.1012 18.7986 10.2137 18.9257 10.2741 19.0424C10.3071 19.1232 10.3583 19.1953 10.4236 19.2531C10.489 19.311 10.5668 19.3529 10.6509 19.3759C10.7351 19.3989 10.8235 19.4022 10.9092 19.3855C10.9948 19.3689 11.0755 19.3327 11.1449 19.2799C11.3866 19.1278 11.6262 18.9653 11.872 18.8174C12.0572 18.6943 12.2747 18.6286 12.497 18.6286C12.7194 18.6286 12.9368 18.6943 13.122 18.8174C13.3574 18.9611 13.5887 19.1174 13.822 19.2653C13.8924 19.3232 13.9754 19.3635 14.0644 19.383C14.1534 19.4025 14.2458 19.4006 14.3338 19.3774C14.4219 19.3542 14.5033 19.3104 14.5711 19.2496C14.639 19.1888 14.6914 19.1128 14.7241 19.0278C14.8574 18.7736 14.9866 18.5174 15.122 18.2632C15.198 18.1096 15.3097 17.9764 15.4479 17.8748C15.586 17.7733 15.7464 17.7065 15.9158 17.6799C16.1612 17.6604 16.4076 17.6583 16.6533 17.6736H16.6616ZM17.3845 11.4778L11.4887 17.3736C15.0949 18.1341 18.147 14.8799 17.3762 11.4778H17.3845Z" fill="white"></path> <path d="M15.5175 11.1171C15.5025 11.3795 15.4019 11.6298 15.2311 11.8296C15.0602 12.0294 14.8286 12.1677 14.5717 12.2233C14.4538 12.2535 14.3329 12.2703 14.2113 12.2733C14.1711 12.2779 14.1304 12.2742 14.0917 12.2625C14.053 12.2507 14.0171 12.2312 13.9862 12.205C13.9554 12.1789 13.9302 12.1466 13.9123 12.1104C13.8944 12.0741 13.8841 12.0345 13.8821 11.9941C13.8803 11.9536 13.887 11.9132 13.9018 11.8754C13.9166 11.8377 13.9392 11.8035 13.968 11.775C13.9969 11.7465 14.0314 11.7244 14.0694 11.7101C14.1074 11.6958 14.1479 11.6897 14.1884 11.6921C14.3945 11.6943 14.5942 11.6201 14.7488 11.4837C14.799 11.4378 14.8419 11.3844 14.8759 11.3254C14.9124 11.2732 14.9321 11.211 14.9321 11.1473C14.9321 11.0835 14.9124 11.0214 14.8759 10.9692C14.7842 10.8483 14.6529 10.8816 14.5404 10.9254C14.3092 11.0149 14.08 11.1129 13.853 11.2108C13.7169 11.2809 13.5615 11.3042 13.4108 11.2771C13.2602 11.25 13.1227 11.174 13.0196 11.0608C12.9056 10.9518 12.8283 10.81 12.7984 10.6551C12.7686 10.5002 12.7876 10.3398 12.8529 10.1962C12.9482 9.98425 13.0986 9.80174 13.2884 9.66764C13.4782 9.53353 13.7005 9.45275 13.9321 9.43372C14.0061 9.43158 14.0782 9.45709 14.1345 9.50523C14.1907 9.55337 14.227 9.6207 14.2363 9.69413C14.2418 9.76486 14.2226 9.83533 14.1819 9.89346C14.1413 9.9516 14.0817 9.9938 14.0134 10.0129C13.8684 10.0537 13.7286 10.111 13.5967 10.1837C13.5076 10.2502 13.4402 10.3415 13.4029 10.4462C13.3949 10.4828 13.3957 10.5207 13.4051 10.5569C13.4145 10.5931 13.4323 10.6266 13.4571 10.6546C13.4842 10.6715 13.5148 10.682 13.5466 10.6853C13.5784 10.6885 13.6105 10.6844 13.6404 10.6733C13.8488 10.592 14.0571 10.4795 14.2654 10.4129C14.4469 10.3477 14.6395 10.3187 14.8321 10.3275C15.0257 10.3465 15.2046 10.4389 15.3321 10.5858C15.4595 10.7326 15.5259 10.9228 15.5175 11.1171Z" fill="white"></path> <path d="M13.8846 12.7779C13.8951 12.9647 13.849 13.1502 13.7523 13.3104C13.6556 13.4705 13.5128 13.5978 13.3426 13.6754C13.1725 13.7531 12.9828 13.7775 12.7985 13.7457C12.6142 13.7138 12.4438 13.627 12.3096 13.4967C11.9054 13.1071 11.5137 12.7071 11.1179 12.3113C10.9616 12.155 10.9492 11.9904 11.0742 11.8612C11.1992 11.7321 11.3721 11.7404 11.5346 11.9009C11.9158 12.28 12.2971 12.655 12.67 13.0404C12.7155 13.098 12.779 13.1387 12.8504 13.1561C12.9217 13.1735 12.9968 13.1665 13.0637 13.1363C13.1354 13.1096 13.1966 13.0606 13.2383 12.9964C13.2799 12.9322 13.2998 12.8564 13.295 12.78C13.2831 12.6913 13.2429 12.6087 13.1804 12.5446C12.8012 12.1529 12.4117 11.7696 12.0262 11.3842C11.9645 11.3359 11.9236 11.2658 11.912 11.1883C11.9003 11.1108 11.9189 11.0318 11.9637 10.9675C11.989 10.9315 12.0222 10.9017 12.0608 10.8804C12.0993 10.8591 12.1423 10.8468 12.1863 10.8446C12.2303 10.8424 12.2742 10.8503 12.3147 10.8676C12.3552 10.8849 12.3912 10.9113 12.42 10.9446C12.695 11.2154 12.9658 11.4883 13.2387 11.7612C13.3783 11.9029 13.5221 12.0425 13.6554 12.1779C13.7354 12.2549 13.7974 12.3486 13.8371 12.4523C13.8767 12.556 13.8929 12.6672 13.8846 12.7779Z" fill="white"></path> <path d="M8.36472 15.6527C8.30014 15.4256 8.23972 15.236 8.1918 15.0277C8.16991 14.9444 8.16991 14.8569 8.1918 14.7735C8.20909 14.7154 8.24641 14.6653 8.29714 14.6321C8.34787 14.599 8.40873 14.5848 8.46889 14.5923C8.5302 14.5923 8.58974 14.6128 8.63806 14.6506C8.68637 14.6883 8.7207 14.7411 8.73556 14.8006C8.82515 15.1048 8.91473 15.4068 8.99389 15.7131C9.00186 15.755 9.02252 15.7935 9.05307 15.8233C9.08363 15.8532 9.12261 15.8728 9.16473 15.8798C9.51265 15.9714 9.85848 16.0715 10.2064 16.1715C10.4147 16.2319 10.5043 16.3797 10.4585 16.5485C10.4126 16.7172 10.2501 16.7902 10.0418 16.7339L9.35431 16.5402C9.31681 16.5298 9.28139 16.5256 9.22723 16.5152C9.31056 16.8152 9.39389 17.0985 9.4668 17.3839C9.47706 17.4206 9.47978 17.459 9.47476 17.4967C9.46975 17.5345 9.45711 17.5709 9.43763 17.6036C9.41815 17.6363 9.39222 17.6647 9.36143 17.6872C9.33063 17.7096 9.2956 17.7255 9.25847 17.734C9.22152 17.7442 9.18288 17.747 9.14485 17.742C9.10682 17.737 9.07019 17.7245 9.03713 17.705C9.00407 17.6856 8.97527 17.6596 8.95245 17.6288C8.92963 17.598 8.91326 17.5629 8.90431 17.5256C8.89129 17.4887 8.88016 17.4512 8.87097 17.4131C8.77514 17.0819 8.67722 16.7506 8.58764 16.4173C8.58156 16.3797 8.56381 16.345 8.53688 16.318C8.50996 16.2911 8.47522 16.2734 8.43763 16.2673C8.1418 16.1881 7.84805 16.1006 7.5543 16.0152C7.51323 16.0091 7.47394 15.9943 7.43905 15.9718C7.40416 15.9493 7.37449 15.9195 7.35201 15.8846C7.32953 15.8497 7.31475 15.8104 7.30868 15.7693C7.30261 15.7283 7.30538 15.6864 7.3168 15.6464C7.3275 15.6063 7.34671 15.569 7.37312 15.5369C7.39953 15.5048 7.43254 15.4788 7.46988 15.4606C7.50723 15.4425 7.54805 15.4325 7.58958 15.4315C7.6311 15.4305 7.67236 15.4384 7.71055 15.4547L8.36472 15.6527Z" fill="white"></path> <path d="M10.5617 16.0984C10.4466 16.1011 10.3321 16.081 10.2248 16.0392C10.1175 15.9973 10.0196 15.9346 9.93673 15.8547C9.66381 15.5901 9.39089 15.3255 9.13048 15.0484C8.98273 14.8873 8.89668 14.6791 8.88753 14.4607C8.87838 14.2423 8.94672 14.0276 9.08048 13.8547C9.21177 13.683 9.3979 13.5615 9.6079 13.5103C9.8179 13.4591 10.0391 13.4814 10.2346 13.5735C10.3065 13.5999 10.3655 13.6528 10.3996 13.7214C10.4337 13.7899 10.4402 13.8689 10.418 13.9422C10.3638 14.113 10.1909 14.1776 9.98672 14.1026C9.92744 14.0724 9.8608 14.0598 9.79459 14.0662C9.72838 14.0725 9.66536 14.0976 9.6129 14.1384C9.56043 14.1793 9.5207 14.2343 9.49835 14.297C9.47601 14.3596 9.47198 14.4273 9.48673 14.4922C9.51032 14.575 9.5548 14.6503 9.6159 14.711C9.82423 14.936 10.0555 15.1547 10.2763 15.3734C10.333 15.4444 10.4139 15.4919 10.5035 15.5069C10.593 15.5219 10.685 15.5033 10.7617 15.4547C10.8356 15.4052 10.8886 15.3302 10.9105 15.2441C10.9324 15.158 10.9217 15.0667 10.8805 14.988C10.8617 14.9523 10.8505 14.9132 10.8476 14.873C10.8448 14.8328 10.8503 14.7924 10.8638 14.7544C10.8773 14.7165 10.8985 14.6817 10.9261 14.6523C10.9537 14.6229 10.9872 14.5996 11.0242 14.5838C11.0626 14.5678 11.1039 14.5599 11.1456 14.5608C11.1872 14.5616 11.2281 14.5712 11.2658 14.5889C11.3035 14.6065 11.3371 14.6319 11.3644 14.6633C11.3916 14.6948 11.412 14.7316 11.4242 14.7714C11.4887 14.915 11.5161 15.0725 11.5039 15.2295C11.4917 15.3865 11.4404 15.5379 11.3546 15.6699C11.2688 15.8019 11.1513 15.9104 11.0128 15.9852C10.8742 16.0601 10.7192 16.099 10.5617 16.0984Z" fill="white"></path> <path d="M16.4079 8.84211C16.3704 8.77336 16.3517 8.72961 16.3287 8.69003C16.1204 8.32128 15.9121 7.95465 15.7037 7.58382C15.6778 7.55048 15.6594 7.51194 15.6498 7.47085C15.6401 7.42976 15.6394 7.38706 15.6478 7.34568C15.6561 7.3043 15.6732 7.26519 15.698 7.23103C15.7228 7.19688 15.7547 7.16845 15.7915 7.14772C15.8283 7.12699 15.8691 7.11444 15.9111 7.1109C15.9532 7.10736 15.9955 7.11293 16.0352 7.12722C16.075 7.14152 16.1111 7.16422 16.1413 7.19375C16.1714 7.22329 16.1949 7.25897 16.21 7.29838C16.5919 7.96504 16.9711 8.63382 17.3475 9.30465C17.3963 9.36974 17.4195 9.45048 17.4126 9.53155C17.4057 9.61262 17.3691 9.68833 17.31 9.74421C17.2535 9.79886 17.1798 9.83211 17.1014 9.8382C17.0231 9.84429 16.9451 9.8228 16.8808 9.77752L14.8475 8.65671C14.8088 8.641 14.7739 8.61727 14.745 8.58708C14.7161 8.5569 14.694 8.52095 14.68 8.48159C14.666 8.44223 14.6606 8.40034 14.6639 8.35871C14.6673 8.31708 14.6794 8.27664 14.6996 8.24005C14.7201 8.20386 14.7481 8.17241 14.7816 8.14768C14.815 8.12295 14.8533 8.10549 14.8939 8.09646C14.9346 8.08743 14.9766 8.08702 15.0174 8.09524C15.0582 8.10347 15.0969 8.12016 15.1308 8.14422C15.5058 8.35255 15.8808 8.56089 16.2558 8.76922C16.2954 8.78797 16.3371 8.80669 16.4079 8.84211Z" fill="white"></path> <path d="M17.6852 7.68627L18.1164 8.10293L18.3664 7.86124C18.3921 7.82852 18.4243 7.80157 18.4611 7.78214C18.4978 7.76272 18.5382 7.75128 18.5797 7.74852C18.6212 7.74577 18.6628 7.75178 18.7018 7.76617C18.7408 7.78057 18.7763 7.80305 18.806 7.83209C18.8359 7.86121 18.8592 7.89639 18.8743 7.93529C18.8895 7.97419 18.8961 8.01589 18.8937 8.05756C18.8913 8.09924 18.88 8.1399 18.8606 8.17684C18.8412 8.21377 18.814 8.2461 18.781 8.27165C18.6331 8.42165 18.4852 8.56959 18.3352 8.71542C18.308 8.74893 18.2737 8.77595 18.2348 8.79451C18.1959 8.81307 18.1533 8.82269 18.1102 8.82269C18.0671 8.82269 18.0245 8.81307 17.9855 8.79451C17.9466 8.77595 17.9123 8.74893 17.8852 8.71542C17.3435 8.17514 16.8032 7.63416 16.2643 7.0925C16.232 7.06572 16.206 7.03212 16.1881 6.99413C16.1703 6.95614 16.161 6.9147 16.161 6.87272C16.161 6.83074 16.1703 6.78925 16.1881 6.75126C16.206 6.71327 16.232 6.67967 16.2643 6.65289C16.4164 6.49664 16.5727 6.3404 16.7289 6.18831C16.7842 6.13306 16.8591 6.10205 16.9373 6.10205C17.0154 6.10205 17.0903 6.13306 17.1456 6.18831C17.2009 6.24357 17.2319 6.31851 17.2319 6.39665C17.2319 6.47479 17.2009 6.54973 17.1456 6.60498C17.0623 6.69248 16.9685 6.7696 16.8873 6.84668L17.331 7.27998C17.3963 7.20121 17.4658 7.12613 17.5393 7.05501C17.5659 7.02765 17.5975 7.00579 17.6325 6.99067C17.6675 6.97555 17.7051 6.96745 17.7433 6.96687C17.7814 6.96629 17.8192 6.97322 17.8546 6.98726C17.8901 7.00131 17.9224 7.02222 17.9498 7.04876C17.9771 7.07529 17.999 7.10695 18.0141 7.14194C18.0292 7.17692 18.0373 7.21455 18.0379 7.25266C18.0385 7.29077 18.0315 7.32862 18.0175 7.36405C18.0034 7.39948 17.9825 7.43181 17.956 7.45917C17.8699 7.5397 17.7795 7.61553 17.6852 7.68627Z" fill="white"></path> <path d="M6.8016 16.9253L7.23909 17.3524C7.30368 17.2815 7.37034 17.2003 7.44743 17.1273C7.47333 17.0965 7.50525 17.0714 7.54122 17.0533C7.57719 17.0353 7.61646 17.0248 7.65664 17.0225C7.69681 17.0201 7.73703 17.026 7.77485 17.0397C7.81268 17.0534 7.84729 17.0748 7.87659 17.1024C7.90599 17.1317 7.92898 17.1669 7.94407 17.2056C7.95917 17.2443 7.96605 17.2858 7.96429 17.3273C7.96253 17.3689 7.95216 17.4096 7.93384 17.4469C7.91551 17.4842 7.88964 17.5172 7.85785 17.544C7.78702 17.6169 7.70576 17.6794 7.63493 17.7523L8.0516 18.1857C8.13493 18.0982 8.21827 18.0086 8.30368 17.9253C8.32953 17.8942 8.36154 17.8689 8.39769 17.8509C8.43384 17.8328 8.47334 17.8225 8.51368 17.8205C8.55403 17.8186 8.59435 17.825 8.63208 17.8395C8.66981 17.8539 8.70412 17.876 8.73285 17.9044C8.76221 17.9324 8.78531 17.9663 8.80064 18.0039C8.81597 18.0414 8.82317 18.0818 8.8218 18.1223C8.82042 18.1628 8.81048 18.2026 8.79264 18.239C8.7748 18.2755 8.74945 18.3077 8.71827 18.3336C8.56618 18.4898 8.41201 18.6461 8.25367 18.7982C8.22749 18.8275 8.19539 18.8511 8.15949 18.8671C8.12359 18.8832 8.08468 18.8915 8.04534 18.8915C8.006 18.8915 7.96711 18.8832 7.93121 18.8671C7.8953 18.8511 7.8632 18.8275 7.83701 18.7982C7.28979 18.2565 6.74535 17.7128 6.20368 17.167C6.17135 17.1402 6.14533 17.1066 6.12746 17.0686C6.1096 17.0306 6.10034 16.9891 6.10034 16.9471C6.10034 16.9052 6.1096 16.8637 6.12746 16.8257C6.14533 16.7877 6.17135 16.7541 6.20368 16.7274C6.35577 16.5711 6.51201 16.4149 6.66826 16.2628C6.69505 16.2322 6.72805 16.2078 6.76505 16.191C6.80206 16.1742 6.84222 16.1655 6.88285 16.1655C6.92348 16.1655 6.96363 16.1742 7.00064 16.191C7.03764 16.2078 7.07064 16.2322 7.09743 16.2628C7.12435 16.2909 7.14534 16.3241 7.15912 16.3605C7.17291 16.3969 7.17921 16.4358 7.17765 16.4747C7.17609 16.5136 7.1667 16.5517 7.15006 16.5869C7.13341 16.6221 7.10985 16.6536 7.08077 16.6794C6.99744 16.7544 6.90368 16.8336 6.8016 16.9253Z" fill="white"></path> <path d="M12.0289 14.2322C12.1122 14.1363 12.1685 14.0613 12.2372 13.9988C12.2642 13.9708 12.2966 13.9486 12.3324 13.9334C12.3682 13.9182 12.4067 13.9104 12.4456 13.9104C12.4844 13.9104 12.5229 13.9182 12.5587 13.9334C12.5945 13.9486 12.6269 13.9708 12.6539 13.9988C12.683 14.0252 12.7062 14.0573 12.7221 14.0932C12.738 14.1291 12.7462 14.1679 12.7462 14.2071C12.7462 14.2464 12.738 14.2852 12.7221 14.3211C12.7062 14.357 12.683 14.3891 12.6539 14.4155C12.5185 14.5613 12.3768 14.703 12.2372 14.8321C12.2115 14.8604 12.1801 14.8829 12.1451 14.8984C12.1101 14.9138 12.0723 14.9218 12.0341 14.9218C11.9959 14.9218 11.9581 14.9138 11.9231 14.8984C11.8881 14.8829 11.8567 14.8604 11.831 14.8321C11.2754 14.2891 10.7275 13.7412 10.1872 13.1884C10.1579 13.1622 10.1344 13.1301 10.1183 13.0942C10.1022 13.0583 10.0939 13.0194 10.0939 12.9801C10.0939 12.9407 10.1022 12.9019 10.1183 12.8659C10.1344 12.83 10.1579 12.7979 10.1872 12.7718C10.2153 12.7425 10.2493 12.7196 10.287 12.7044C10.3246 12.6893 10.365 12.6822 10.4055 12.6838C10.4461 12.6854 10.4858 12.6955 10.5222 12.7136C10.5585 12.7316 10.5906 12.7571 10.6164 12.7884C11.0497 13.2176 11.4803 13.6481 11.9081 14.0801C11.931 14.1093 11.9643 14.1572 12.0289 14.2322Z" fill="white"></path> <path d="M16.4005 10.5819C16.3318 10.6735 16.288 10.7902 16.2109 10.8193C16.1125 10.8443 16.0094 10.8443 15.9109 10.8193C15.8797 10.8193 15.8505 10.7735 15.8234 10.7444C15.2984 10.2221 14.7748 9.69853 14.2526 9.17353C14.207 9.13036 14.1702 9.0787 14.1443 9.02145C14.1208 8.96184 14.1186 8.89596 14.1379 8.83489C14.1573 8.77381 14.197 8.72124 14.2505 8.68601C14.3018 8.64659 14.3655 8.62683 14.43 8.63027C14.4946 8.63371 14.5558 8.66014 14.6026 8.70478C14.7109 8.80061 14.8109 8.91311 14.9151 9.01311C15.3526 9.44853 15.7922 9.88604 16.2255 10.3256C16.2905 10.4063 16.349 10.492 16.4005 10.5819Z" fill="white"></path> <path d="M9.05036 8.75906C9.05093 8.7977 9.04371 8.83604 9.02913 8.87183C9.01454 8.90761 8.99289 8.94007 8.96547 8.96729C8.93805 8.99452 8.90542 9.01598 8.86953 9.03031C8.83365 9.04465 8.79525 9.05155 8.75662 9.05071C8.68016 9.04908 8.60735 9.01774 8.55366 8.96328C8.49998 8.90881 8.46964 8.83554 8.46912 8.75906C8.47074 8.68095 8.50278 8.60656 8.55842 8.5517C8.61406 8.49684 8.6889 8.46586 8.76703 8.46533C8.84312 8.46803 8.91518 8.50015 8.96804 8.55495C9.0209 8.60975 9.05041 8.68293 9.05036 8.75906Z" fill="white"></path> </svg> 