<?xml version="1.0" encoding="UTF-8"?> <svg xmlns="http://www.w3.org/2000/svg" width="25" height="25" viewBox="0 0 25 25" fill="none"> <path d="M25 12.4973C25.0006 15.3323 24.0375 18.0833 22.2687 20.2989C20.4999 22.5144 18.0306 24.0629 15.2658 24.6902C12.5011 25.3174 9.60529 24.9863 7.05356 23.751C4.50183 22.5158 2.44578 20.4498 1.22284 17.8922C-9.74535e-05 15.3345 -0.31729 12.4371 0.323318 9.67545C0.963926 6.91378 2.52428 4.45187 4.74832 2.69379C6.97236 0.935713 9.72796 -0.0141091 12.5629 0.000158421C15.3979 0.0144259 18.1438 0.991949 20.35 2.77232C20.5146 2.90357 20.6771 3.04107 20.8333 3.18899C22.1451 4.3589 23.1945 5.7931 23.9126 7.39737C24.6307 9.00163 25.0013 10.7397 25 12.4973Z" fill="#F25D96"></path> <path d="M20.9777 6.24085C20.9803 6.16259 21.0123 6.08817 21.0673 6.03251C21.2652 5.82418 21.484 5.61584 21.6757 5.40751C21.8361 5.23251 21.8361 5.05964 21.6965 4.93464C21.5569 4.80964 21.3902 4.8367 21.2298 5.0117L20.8548 5.42837C20.7882 4.64087 20.3777 4.23669 19.6048 4.16794C19.9654 3.78832 20.3812 3.46527 20.8382 3.20964C20.6819 3.06797 20.5194 2.93047 20.3548 2.79297C19.8475 3.10934 19.3868 3.49501 18.9861 3.9388C18.9563 3.97021 18.9204 3.99527 18.8807 4.01245C18.8409 4.02964 18.7981 4.0386 18.7548 4.0388C17.1368 3.8138 15.5187 3.58253 13.9007 3.34503C13.6741 3.30109 13.44 3.31634 13.221 3.38933C13.002 3.46232 12.8056 3.59059 12.6507 3.7617C11.3569 5.07212 10.0486 6.37004 8.74442 7.67212C8.70275 7.71587 8.659 7.75543 8.6215 7.80335C8.59542 7.82929 8.57473 7.86017 8.56061 7.89413C8.54649 7.9281 8.53922 7.96452 8.53922 8.0013C8.53922 8.03809 8.54649 8.0745 8.56061 8.10847C8.57473 8.14244 8.59542 8.17327 8.6215 8.19921C8.64704 8.22882 8.67839 8.25287 8.7136 8.26986C8.74882 8.28685 8.78715 8.29642 8.82621 8.29798C8.86528 8.29955 8.90426 8.29303 8.94072 8.27891C8.97718 8.26479 9.01034 8.24336 9.03817 8.21589C9.08816 8.17423 9.134 8.12419 9.18192 8.07836C10.4611 6.79919 11.7465 5.52629 13.0132 4.2367C13.1206 4.11661 13.2582 4.0274 13.4116 3.97832C13.5651 3.92924 13.7289 3.92205 13.8861 3.95752C15.2527 4.16585 16.6215 4.35128 17.9902 4.54503C18.5694 4.62628 19.1486 4.70544 19.7257 4.79502C19.8538 4.80361 19.9746 4.85801 20.066 4.94827C20.1575 5.03853 20.2134 5.15866 20.2236 5.28671C20.2548 5.45546 20.2777 5.62837 20.2923 5.7992C20.2942 5.82664 20.2899 5.85414 20.2798 5.87972C20.2697 5.9053 20.2541 5.92833 20.234 5.94711C19.9611 6.12836 19.6798 6.30129 19.4007 6.48046C19.3673 6.40963 19.3548 6.38043 19.3423 6.34918C19.2531 6.1068 19.0831 5.90259 18.8609 5.77093C18.6388 5.63926 18.378 5.58821 18.1225 5.62637C17.8671 5.66454 17.6326 5.78962 17.4586 5.98048C17.2846 6.17134 17.1818 6.41633 17.1673 6.67419C17.1501 6.93562 17.2258 7.19472 17.3809 7.40585C17.536 7.61699 17.7606 7.76663 18.0152 7.82837C18.2699 7.89182 18.5388 7.86407 18.7752 7.74989C19.0115 7.63571 19.2004 7.44233 19.309 7.20337C19.3283 7.15568 19.3608 7.11448 19.4027 7.08461C19.734 6.92002 20.0694 6.7638 20.4152 6.59714C20.4423 6.7888 20.4736 6.99294 20.5027 7.19503C20.6965 8.56378 20.8882 9.93252 21.0882 11.2992C21.1077 11.4099 21.0989 11.5239 21.0625 11.6302C21.026 11.7366 20.9632 11.8321 20.8798 11.9076C17.5465 15.2409 14.2166 18.57 10.8903 21.895C10.5632 22.22 10.3153 22.218 9.98608 21.895C7.70414 19.6159 5.42359 17.3353 3.14442 15.0534C2.79859 14.7075 2.80067 14.47 3.14442 14.1221L7.93609 9.33045C7.98192 9.28253 8.03192 9.23879 8.07359 9.18671C8.10156 9.1597 8.12381 9.12734 8.139 9.09154C8.1542 9.05575 8.16203 9.01726 8.16203 8.97837C8.16203 8.93949 8.1542 8.901 8.139 8.8652C8.12381 8.82941 8.10156 8.79705 8.07359 8.77004C8.04629 8.74258 8.01383 8.72078 7.97807 8.7059C7.94232 8.69103 7.90398 8.68337 7.86525 8.68337C7.82653 8.68337 7.78819 8.69103 7.75244 8.7059C7.71668 8.72078 7.68422 8.74258 7.65692 8.77004C7.60692 8.81171 7.56109 8.86169 7.51317 8.90961L2.72151 13.7013C2.14443 14.2784 2.14443 14.895 2.72151 15.4763L9.53608 22.2888C10.1361 22.8888 10.7402 22.8909 11.3382 22.2888C14.6451 18.9832 17.9527 15.6784 21.2611 12.3742C21.4341 12.214 21.5633 12.0121 21.6362 11.7878C21.7092 11.5635 21.7234 11.3243 21.6777 11.0929C21.4257 9.46377 21.2007 7.85126 20.9777 6.24085ZM17.9173 7.07418C17.7486 6.90751 17.7319 6.70754 17.8257 6.4242C17.8622 6.60545 17.9512 6.77196 18.0816 6.90308C18.2119 7.03419 18.378 7.12414 18.559 7.16171C18.4573 7.21872 18.34 7.24137 18.2243 7.22636C18.1087 7.21135 18.0011 7.15944 17.9173 7.07835V7.07418ZM18.7507 6.55752C18.4923 6.54502 18.4257 6.47628 18.4402 6.15545L18.7986 6.50543L18.7507 6.55752Z" fill="white"></path> <path d="M7.12089 14.6304C7.33851 14.6284 7.55154 14.6929 7.73141 14.8155C7.91128 14.938 8.04936 15.1126 8.12713 15.3158C8.20891 15.5002 8.23376 15.7048 8.19849 15.9034C8.16323 16.102 8.06947 16.2855 7.92922 16.4304C7.6813 16.7075 7.41255 16.9659 7.1438 17.2242C7.11599 17.2605 7.08019 17.2899 7.03919 17.3101C6.99818 17.3303 6.95307 17.3409 6.90735 17.3409C6.86162 17.3409 6.81651 17.3303 6.7755 17.3101C6.7345 17.2899 6.6987 17.2605 6.67089 17.2242C5.95422 16.5117 5.23964 15.7971 4.52714 15.0804C4.48922 15.0523 4.45842 15.0157 4.43719 14.9736C4.41597 14.9314 4.40491 14.8849 4.40491 14.8377C4.40491 14.7905 4.41597 14.744 4.43719 14.7018C4.45842 14.6597 4.48922 14.6231 4.52714 14.595C4.75839 14.3554 4.99589 14.1221 5.2313 13.8888C5.37272 13.7351 5.55552 13.6256 5.75772 13.5734C5.95993 13.5213 6.1729 13.5286 6.37101 13.5946C6.56912 13.6607 6.74392 13.7826 6.87437 13.9456C7.00482 14.1087 7.08536 14.306 7.1063 14.5138C7.10839 14.5388 7.11464 14.5783 7.12089 14.6304ZM5.82922 15.5055L6.32089 14.9971C6.34537 14.9743 6.36833 14.95 6.38964 14.9242C6.46802 14.8363 6.51048 14.7222 6.50855 14.6044C6.50662 14.4867 6.46045 14.374 6.37922 14.2888C6.30319 14.1992 6.19489 14.1433 6.07786 14.1331C5.96083 14.123 5.84452 14.1595 5.75422 14.2346C5.54589 14.4221 5.36256 14.6512 5.17506 14.8408L5.82922 15.5055ZM6.89797 16.5804C7.1063 16.3867 7.31464 16.2075 7.50422 16.0013C7.57167 15.9147 7.60673 15.8072 7.60334 15.6975C7.59996 15.5877 7.55835 15.4827 7.48569 15.4004C7.41304 15.3181 7.31391 15.2638 7.20545 15.2468C7.09699 15.2299 6.98602 15.2513 6.89172 15.3075C6.65839 15.4971 6.45214 15.7242 6.26672 15.9034L6.89797 16.5804Z" fill="white"></path> <path d="M12.353 15.9055C13.0113 15.9055 13.3134 16.4284 13.703 16.8138C13.7289 16.8406 13.7486 16.8728 13.7608 16.908C13.773 16.9432 13.7774 16.9807 13.7736 17.0178C13.7699 17.0549 13.7581 17.0907 13.739 17.1228C13.72 17.1549 13.6942 17.1824 13.6634 17.2034C13.6382 17.2308 13.6076 17.2527 13.5736 17.2677C13.5395 17.2826 13.5027 17.2903 13.4655 17.2903C13.4283 17.2903 13.3914 17.2826 13.3574 17.2677C13.3233 17.2527 13.2927 17.2308 13.2676 17.2034C13.0926 17.0409 12.928 16.868 12.7571 16.7014C12.7108 16.6416 12.6514 16.5933 12.5835 16.5601C12.5156 16.5268 12.441 16.5095 12.3655 16.5095C12.2899 16.5095 12.2153 16.5268 12.1474 16.5601C12.0795 16.5933 12.0202 16.6416 11.9738 16.7014C11.8071 16.8618 11.6363 17.0159 11.4488 17.1909C11.7509 17.4909 12.028 17.7576 12.2926 18.0368C12.3699 18.1145 12.4197 18.2155 12.4342 18.3242C12.4338 18.3756 12.4194 18.426 12.3926 18.4698C12.3657 18.5137 12.3274 18.5494 12.2818 18.5732C12.2362 18.597 12.185 18.6079 12.1337 18.6048C12.0824 18.6017 12.0329 18.5846 11.9905 18.5555C11.9142 18.501 11.8443 18.4381 11.7821 18.368L9.8363 16.4243C9.57589 16.1618 9.57589 16.0472 9.8363 15.7805C10.0238 15.593 10.2175 15.4097 10.3988 15.2159C10.5387 15.0397 10.7302 14.9117 10.9465 14.8496C11.1628 14.7876 11.393 14.7948 11.6051 14.8701C12.0863 15.0305 12.3113 15.393 12.353 15.9055ZM11.0571 16.7388C11.2405 16.5597 11.4446 16.3784 11.6259 16.1784C11.7065 16.0896 11.7502 15.9734 11.7481 15.8535C11.746 15.7336 11.6982 15.619 11.6144 15.5331C11.5307 15.4473 11.4173 15.3966 11.2975 15.3915C11.1777 15.3863 11.0604 15.4271 10.9696 15.5055C10.7613 15.693 10.5842 15.9034 10.4071 16.0888L11.0571 16.7388Z" fill="white"></path> <path d="M7.14236 12.8285L7.81527 13.4972L7.94652 13.3743C8.25277 13.068 8.55694 12.7493 8.86527 12.4576C8.89146 12.423 8.92466 12.3943 8.96271 12.3734C9.00075 12.3525 9.04278 12.3399 9.08605 12.3363C9.12931 12.3328 9.17284 12.3384 9.21378 12.3529C9.25471 12.3673 9.29214 12.3902 9.32361 12.4202C9.35425 12.4512 9.37787 12.4884 9.39287 12.5293C9.40787 12.5702 9.4139 12.6139 9.41054 12.6574C9.40718 12.7008 9.39452 12.7431 9.37341 12.7812C9.3523 12.8194 9.32323 12.8525 9.28819 12.8785C8.93819 13.2326 8.58402 13.5826 8.24652 13.9201L8.93819 14.5993L9.83819 13.6889C9.90284 13.62 9.97247 13.5559 10.0465 13.4972C10.1025 13.4537 10.1724 13.4319 10.2432 13.4359C10.314 13.4399 10.381 13.4694 10.4318 13.5189C10.4825 13.5684 10.5137 13.6346 10.5195 13.7053C10.5253 13.776 10.5053 13.8464 10.4632 13.9035C10.4361 13.9411 10.4054 13.976 10.3715 14.0076L9.18611 15.191C8.97777 15.3993 8.83402 15.3993 8.62569 15.191L6.54236 13.118C6.33403 12.9097 6.33403 12.7785 6.54236 12.5743L7.76944 11.3472C7.87777 11.2368 8.01527 11.1722 8.14236 11.2681C8.22974 11.3412 8.28629 11.4446 8.30069 11.5576C8.30069 11.6285 8.23194 11.7264 8.16944 11.7889C7.87361 12.0951 7.56944 12.3931 7.26944 12.6952L7.14236 12.8285Z" fill="white"></path> <path d="M16.3504 12.2763L17.0525 12.9784L18.0066 12.0221C18.056 11.9679 18.1096 11.9177 18.167 11.8721C18.2209 11.8256 18.2908 11.8017 18.3619 11.8056C18.433 11.8095 18.4998 11.8408 18.5483 11.893C18.576 11.9149 18.5991 11.9421 18.6162 11.973C18.6333 12.004 18.644 12.038 18.6477 12.0732C18.6513 12.1083 18.648 12.1439 18.6377 12.1777C18.6274 12.2115 18.6105 12.2429 18.5879 12.2701C18.5095 12.3694 18.4231 12.462 18.3295 12.5471L17.315 13.5617C17.092 13.7826 16.9587 13.7847 16.742 13.5617L14.6858 11.5034C14.467 11.295 14.467 11.1492 14.6858 10.9305C15.0788 10.5346 15.474 10.1402 15.8712 9.74715C16.0441 9.57423 16.2275 9.55548 16.3566 9.69298C16.4858 9.83048 16.4712 9.9909 16.3004 10.1638L15.2587 11.2055L15.9483 11.8888L16.8941 10.9326C16.9358 10.8909 16.9775 10.8472 17.0212 10.8076C17.0492 10.7802 17.0824 10.7587 17.1188 10.7441C17.1552 10.7296 17.194 10.7223 17.2332 10.7228C17.2724 10.7233 17.3111 10.7315 17.3471 10.7469C17.3831 10.7623 17.4157 10.7847 17.4431 10.8128C17.4704 10.8408 17.492 10.874 17.5065 10.9104C17.5211 10.9468 17.5283 10.9856 17.5278 11.0248C17.5274 11.064 17.5192 11.1027 17.5037 11.1387C17.4883 11.1747 17.4659 11.2073 17.4379 11.2347C17.1379 11.5451 16.8316 11.8492 16.5233 12.1513C16.4688 12.1972 16.411 12.239 16.3504 12.2763Z" fill="white"></path> <path d="M8.70081 10.9595C8.70081 10.0699 9.60497 9.38449 10.3279 9.63032C10.4878 9.69177 10.6343 9.78377 10.7591 9.90116C10.7868 9.92617 10.809 9.95669 10.8241 9.99078C10.8393 10.0249 10.8471 10.0618 10.8471 10.0991C10.8471 10.1364 10.8393 10.1733 10.8241 10.2074C10.809 10.2414 10.7868 10.272 10.7591 10.297C10.7132 10.3515 10.6485 10.3866 10.5779 10.3954C10.5072 10.4043 10.4358 10.3863 10.3779 10.3449C9.93206 10.0845 9.57373 10.1908 9.33623 10.6574C9.28984 10.7542 9.27694 10.8636 9.29957 10.9684C9.3222 11.0733 9.37907 11.1676 9.46122 11.2366C9.54362 11.3052 9.64697 11.3436 9.75418 11.3455C9.86139 11.3474 9.96603 11.3126 10.0508 11.247C10.155 11.1637 10.2425 11.0637 10.3404 10.9741C10.541 10.7713 10.8139 10.6565 11.0991 10.6549C11.3843 10.6534 11.6584 10.7652 11.8612 10.9658C12.064 11.1663 12.1788 11.4392 12.1804 11.7244C12.1819 12.0096 12.0701 12.2838 11.8696 12.4866C11.6669 12.7633 11.3708 12.9572 11.0362 13.0324C10.8787 13.0593 10.7172 13.05 10.5638 13.0052C10.4104 12.9605 10.2692 12.8814 10.1508 12.7741C10.12 12.7491 10.0945 12.7182 10.0756 12.6833C10.0568 12.6484 10.045 12.6101 10.0409 12.5706C10.0369 12.5312 10.0406 12.4913 10.0519 12.4533C10.0633 12.4153 10.082 12.3799 10.1071 12.3491C10.1321 12.3183 10.1629 12.2928 10.1978 12.2739C10.2328 12.2551 10.271 12.2433 10.3105 12.2392C10.35 12.2352 10.3898 12.2389 10.4279 12.2503C10.4659 12.2616 10.5013 12.2803 10.5321 12.3053C10.8216 12.5137 11.0154 12.497 11.2716 12.247C11.347 12.1799 11.4166 12.1067 11.48 12.0282C11.5507 11.9358 11.5849 11.8205 11.5759 11.7044C11.567 11.5884 11.5155 11.4797 11.4314 11.3992C11.3473 11.3187 11.2365 11.2721 11.1201 11.2682C11.0038 11.2643 10.8901 11.3035 10.8008 11.3783C10.6946 11.4658 10.6029 11.5866 10.4966 11.6657C10.3425 11.8099 10.1482 11.9038 9.93948 11.9351C9.73077 11.9663 9.5175 11.9334 9.32789 11.8408C9.14928 11.7703 8.99495 11.6496 8.88363 11.4932C8.77232 11.3367 8.7088 11.1513 8.70081 10.9595Z" fill="white"></path> <path d="M9.46731 19.1805L10.2611 19.9596C10.3094 20.0045 10.3546 20.0525 10.3965 20.1034C10.4438 20.1601 10.4681 20.2325 10.4648 20.3062C10.4615 20.38 10.4307 20.4498 10.3785 20.502C10.3263 20.5543 10.2564 20.5851 10.1826 20.5884C10.1089 20.5917 10.0365 20.5673 9.97981 20.5201C9.91217 20.466 9.84879 20.4068 9.79023 20.343L7.82981 18.3805C7.59231 18.143 7.59439 18.0222 7.82981 17.7805C8.06523 17.5388 8.26731 17.3347 8.49231 17.118C8.5897 17.0103 8.70785 16.9235 8.83966 16.8626C8.97147 16.8018 9.11422 16.7682 9.25934 16.7639C9.40445 16.7596 9.54893 16.7847 9.6841 16.8377C9.81926 16.8907 9.94232 16.9704 10.0459 17.0722C10.1495 17.1739 10.2314 17.2955 10.2868 17.4297C10.3421 17.5639 10.3698 17.708 10.3681 17.8531C10.3664 17.9983 10.3354 18.1416 10.2769 18.2745C10.2184 18.4073 10.1336 18.527 10.0277 18.6263C9.86731 18.8117 9.67773 18.9721 9.46731 19.1805ZM9.06315 18.7368C9.26106 18.5451 9.46523 18.3638 9.64856 18.1618C9.72298 18.0718 9.76135 17.9575 9.75623 17.8409C9.75111 17.7243 9.70287 17.6137 9.62087 17.5307C9.53886 17.4477 9.42894 17.398 9.31241 17.3914C9.19588 17.3849 9.08107 17.4218 8.99023 17.495C8.78189 17.6805 8.60064 17.8909 8.41314 18.0846L9.06315 18.7368Z" fill="white"></path> <path d="M14.1087 11.9722C14.4253 11.9631 14.7339 12.0731 14.9733 12.2805C15.0101 12.3034 15.0417 12.3339 15.0659 12.3699C15.09 12.4058 15.1063 12.4465 15.1136 12.4892C15.1209 12.532 15.119 12.5758 15.1081 12.6178C15.0972 12.6597 15.0775 12.6989 15.0504 12.7327C14.9337 12.8764 14.7691 12.8827 14.5962 12.7327C14.4984 12.641 14.3737 12.5832 14.2405 12.5678C14.1073 12.5524 13.9728 12.5802 13.8566 12.6472C13.7419 12.7012 13.6487 12.7922 13.5921 12.9056C13.5354 13.019 13.5185 13.1481 13.5441 13.2722C13.5736 13.4128 13.6389 13.5435 13.7337 13.6514C14.0045 13.9451 14.292 14.2222 14.5775 14.4993C14.6333 14.5615 14.701 14.6119 14.7767 14.6475C14.8523 14.683 14.9344 14.703 15.0179 14.7063C15.1014 14.7096 15.1848 14.6962 15.263 14.6667C15.3412 14.6372 15.4127 14.5923 15.4733 14.5347C15.5926 14.4218 15.664 14.2673 15.6725 14.1032C15.6811 13.9392 15.6261 13.7781 15.5191 13.6535C15.3754 13.4639 15.3733 13.2972 15.5191 13.1805C15.665 13.0639 15.8379 13.0993 15.9858 13.2743C16.1815 13.5118 16.2828 13.8133 16.2701 14.1208C16.2574 14.4283 16.1317 14.7204 15.917 14.941C15.7033 15.1602 15.4142 15.2902 15.1083 15.3045C14.8024 15.3188 14.5024 15.2164 14.2691 15.0181C13.8955 14.6882 13.5427 14.3354 13.2129 13.9618C13.0547 13.7871 12.9547 13.5675 12.9268 13.3335C12.8988 13.0995 12.9441 12.8626 13.0566 12.6555C13.1499 12.4542 13.2981 12.2833 13.4842 12.1624C13.6704 12.0415 13.8868 11.9756 14.1087 11.9722Z" fill="white"></path> <path d="M11.3032 8.63482C11.1532 8.79523 11.0261 8.94109 10.8865 9.07442C10.8604 9.10705 10.8277 9.13378 10.7905 9.15285C10.7533 9.17192 10.7125 9.18288 10.6708 9.18505C10.6291 9.18721 10.5874 9.18054 10.5484 9.16542C10.5095 9.15029 10.4742 9.12711 10.4448 9.09736C10.4142 9.06866 10.3902 9.03368 10.3743 8.99482C10.3584 8.95597 10.3511 8.91412 10.3529 8.87219C10.3547 8.83026 10.3655 8.78922 10.3846 8.75185C10.4037 8.71448 10.4306 8.68168 10.4636 8.65567C10.8886 8.22373 11.3163 7.79597 11.7469 7.37235C11.7735 7.33996 11.8068 7.31366 11.8445 7.2953C11.8822 7.27694 11.9234 7.26694 11.9654 7.26595C12.0073 7.26496 12.0489 7.27304 12.0874 7.2896C12.126 7.30616 12.1605 7.33083 12.1886 7.36193C12.2172 7.39214 12.2393 7.42796 12.2534 7.46716C12.2674 7.50637 12.2732 7.54809 12.2702 7.58964C12.2673 7.63119 12.2558 7.67167 12.2363 7.70851C12.2169 7.74534 12.19 7.7777 12.1573 7.80357C12.024 7.94107 11.8802 8.06815 11.7157 8.22023C11.899 8.39732 12.0636 8.55151 12.2219 8.70984C12.7073 9.19317 13.1927 9.67234 13.6698 10.1682C13.7496 10.2522 13.7956 10.3627 13.799 10.4786C13.7881 10.5276 13.7653 10.5732 13.7326 10.6114C13.6999 10.6495 13.6583 10.6791 13.6115 10.6973C13.5558 10.7064 13.4988 10.7041 13.444 10.6905C13.3892 10.6769 13.3377 10.6523 13.2927 10.6182C13.0115 10.3661 12.7511 10.089 12.4844 9.82236L11.3032 8.63482Z" fill="white"></path> <path d="M14.5549 16.2388C14.4778 16.3388 14.432 16.4472 14.3466 16.4868C14.2496 16.5169 14.1457 16.5169 14.0487 16.4868C13.9987 16.4764 13.957 16.4159 13.9153 16.3722L11.8695 14.3284C11.8252 14.2891 11.786 14.2443 11.7528 14.1951C11.7156 14.1376 11.6994 14.069 11.7071 14.0009C11.7148 13.9328 11.7459 13.8695 11.7951 13.8218C11.8442 13.7741 11.9085 13.7449 11.9768 13.7393C12.0451 13.7337 12.1132 13.7519 12.1695 13.7909C12.2182 13.8254 12.263 13.8652 12.3028 13.9097C12.9841 14.5909 13.6674 15.2701 14.3466 15.9555C14.4232 16.0445 14.4928 16.1392 14.5549 16.2388Z" fill="white"></path> </svg> 