<?xml version="1.0" encoding="UTF-8"?> <svg xmlns="http://www.w3.org/2000/svg" width="25" height="25" viewBox="0 0 25 25" fill="none"> <path d="M12.5 25C19.4036 25 25 19.4036 25 12.5C25 5.59644 19.4036 0 12.5 0C5.59644 0 0 5.59644 0 12.5C0 19.4036 5.59644 25 12.5 25Z" fill="#F25D96"></path> <path d="M4.03296 6.50213C4.09011 6.37751 4.18567 6.27445 4.30565 6.20809C4.42562 6.14173 4.56369 6.11555 4.69963 6.13338C9.90796 6.13338 15.1163 6.13338 20.3246 6.13338C20.7996 6.13338 20.9663 6.30006 20.9663 6.78131C20.9663 10.4105 20.9663 14.0396 20.9663 17.6688C20.9797 17.7563 20.9707 17.8458 20.9401 17.9289C20.9095 18.012 20.8583 18.0859 20.7913 18.1438C20.6835 18.2162 20.5584 18.2585 20.4288 18.2667C20.0121 18.2813 19.5955 18.2667 19.1788 18.2667C18.9705 18.2667 18.8705 18.1751 18.8705 18.0209C18.8705 17.8667 18.9809 17.773 19.1788 17.773C19.5955 17.773 20.0267 17.773 20.4621 17.773V6.63753H4.54546V17.7709H14.4871C14.5638 17.7702 14.6405 17.7757 14.7163 17.7875C14.7445 17.7898 14.7719 17.7978 14.7969 17.8111C14.8219 17.8243 14.8439 17.8425 14.8617 17.8645C14.8794 17.8866 14.8925 17.912 14.9001 17.9392C14.9077 17.9664 14.9096 17.9949 14.9059 18.023C14.9079 18.0522 14.904 18.0815 14.8946 18.1091C14.8851 18.1368 14.8703 18.1623 14.8509 18.1842C14.8315 18.2061 14.808 18.224 14.7817 18.2367C14.7553 18.2494 14.7267 18.2568 14.6975 18.2584C14.6372 18.2625 14.5766 18.2625 14.5163 18.2584C11.2371 18.2584 7.95797 18.2584 4.6788 18.2584C4.54489 18.2756 4.40905 18.2478 4.29282 18.1791C4.17658 18.1104 4.08659 18.0049 4.03713 17.8792L4.03296 6.50213Z" fill="white"></path> <path d="M19.5159 7.57927H5.48469V16.8459H14.5014C14.5617 16.8407 14.6223 16.8407 14.6826 16.8459C14.7412 16.8537 14.7951 16.8824 14.8341 16.9269C14.873 16.9714 14.8946 17.0285 14.8946 17.0876C14.8946 17.1468 14.873 17.2039 14.8341 17.2484C14.7951 17.2928 14.7412 17.3216 14.6826 17.3293C14.6278 17.3335 14.5728 17.3335 14.518 17.3293H5.55969C5.14302 17.3293 4.96594 17.1606 4.96594 16.7397V7.65221C4.96594 7.23554 5.13885 7.0647 5.54719 7.0647H19.4347C19.8513 7.0647 20.0201 7.23762 20.0201 7.64804V16.7522C20.0201 17.1689 19.8451 17.3293 19.4326 17.3293C19.3284 17.3293 19.2243 17.3293 19.118 17.3293C19.0528 17.3293 18.9903 17.3034 18.9442 17.2573C18.8981 17.2112 18.8722 17.1487 18.8722 17.0835C18.8722 17.0183 18.8981 16.9557 18.9442 16.9096C18.9903 16.8635 19.0528 16.8376 19.118 16.8376C19.1826 16.8376 19.2493 16.8376 19.3264 16.8376H19.5201L19.5159 7.57927Z" fill="white"></path> <path d="M16.8868 18.196L16.2159 18.7272C16.1604 18.7896 16.0865 18.8327 16.0048 18.8503C15.9232 18.8679 15.838 18.8591 15.7617 18.8251C15.6919 18.7858 15.636 18.7259 15.6017 18.6535C15.5674 18.5811 15.5563 18.4999 15.5701 18.421C15.5701 17.9856 15.5701 17.5522 15.5701 17.1168C15.5586 17.0441 15.5354 16.9737 15.5013 16.9085C15.4555 16.7939 15.4118 16.6752 15.3555 16.5647C15.3212 16.4784 15.2652 16.4024 15.193 16.3439C15.1098 16.3062 15.0355 16.2515 14.9749 16.1832C14.9142 16.115 14.8686 16.0348 14.8409 15.9478C14.8132 15.8608 14.8041 15.7689 14.8141 15.6782C14.8242 15.5874 14.8532 15.4998 14.8993 15.421C14.9234 15.3788 14.9361 15.331 14.9361 15.2825C14.9361 15.2339 14.9234 15.1861 14.8993 15.1439C14.8528 15.0656 14.8233 14.9783 14.8128 14.8879C14.8023 14.7974 14.811 14.7057 14.8383 14.6188C14.8656 14.5319 14.911 14.4517 14.9714 14.3836C15.0318 14.3154 15.1059 14.2607 15.1888 14.2231C15.2688 14.1725 15.3268 14.0936 15.3513 14.0022C15.3614 13.9102 15.3908 13.8213 15.4376 13.7414C15.4843 13.6615 15.5474 13.5923 15.6227 13.5385C15.698 13.4846 15.7838 13.4472 15.8746 13.4288C15.9653 13.4103 16.0589 13.4112 16.1493 13.4314C16.2394 13.4354 16.3278 13.4058 16.3972 13.3481C16.4593 13.2793 16.5351 13.2243 16.6198 13.1867C16.7045 13.1491 16.7962 13.1296 16.8888 13.1296C16.9815 13.1296 17.0732 13.1491 17.1578 13.1867C17.2425 13.2243 17.3184 13.2793 17.3805 13.3481C17.4539 13.4069 17.5472 13.4352 17.6409 13.4272C17.7289 13.4093 17.8196 13.4099 17.9073 13.4289C17.995 13.4479 18.0779 13.4849 18.1505 13.5376C18.2232 13.5903 18.2841 13.6575 18.3295 13.735C18.3748 13.8124 18.4035 13.8985 18.4138 13.9876C18.4186 14.0418 18.4383 14.0936 18.4707 14.1374C18.503 14.1811 18.5468 14.2151 18.5972 14.2356C18.6785 14.2712 18.7513 14.3237 18.8107 14.3896C18.8701 14.4555 18.9148 14.5334 18.9418 14.6179C18.9688 14.7025 18.9775 14.7919 18.9673 14.88C18.9571 14.9682 18.9282 15.0532 18.8826 15.1293C18.8555 15.1762 18.8413 15.2293 18.8413 15.2835C18.8413 15.3376 18.8555 15.3908 18.8826 15.4377C18.9278 15.5139 18.9563 15.5988 18.9661 15.6868C18.976 15.7748 18.9671 15.864 18.9399 15.9483C18.9127 16.0326 18.8679 16.1102 18.8085 16.1759C18.749 16.2416 18.6763 16.2939 18.5951 16.3293C18.5444 16.3499 18.5004 16.3842 18.468 16.4284C18.4357 16.4725 18.4162 16.5248 18.4118 16.5793C18.404 16.6781 18.3687 16.7727 18.3097 16.8522C18.2282 16.9553 18.1908 17.0863 18.2055 17.2168C18.2055 17.6189 18.2055 18.021 18.2055 18.4231C18.2173 18.5035 18.2036 18.5855 18.1662 18.6577C18.1288 18.7299 18.0697 18.7884 17.9972 18.8251C17.9242 18.8584 17.8424 18.8677 17.7638 18.8516C17.6852 18.8355 17.6137 18.7949 17.5597 18.7356C17.3472 18.5564 17.1201 18.3814 16.8868 18.196ZM17.7076 16.646C17.8597 16.646 17.9159 16.6231 17.9263 16.4814C17.937 16.357 17.9815 16.2379 18.0549 16.1369C18.1283 16.036 18.228 15.957 18.343 15.9085C18.3716 15.9012 18.3979 15.8868 18.4195 15.8667C18.441 15.8465 18.4571 15.8212 18.4663 15.7931C18.4754 15.765 18.4773 15.7351 18.4718 15.7061C18.4663 15.6771 18.4535 15.65 18.4347 15.6272C18.3702 15.5238 18.3361 15.4043 18.3361 15.2825C18.3361 15.1606 18.3702 15.0411 18.4347 14.9377C18.4535 14.9152 18.4664 14.8884 18.4722 14.8596C18.478 14.8309 18.4765 14.8011 18.4678 14.7731C18.459 14.7451 18.4434 14.7198 18.4224 14.6994C18.4013 14.679 18.3754 14.6642 18.3472 14.6564C18.2313 14.6097 18.1309 14.5314 18.0573 14.4306C17.9836 14.3297 17.9397 14.2101 17.9305 14.0856C17.9324 14.0575 17.9273 14.0295 17.9154 14.004C17.9036 13.9785 17.8855 13.9564 17.8628 13.9397C17.8402 13.9231 17.8137 13.9124 17.7858 13.9088C17.7579 13.9052 17.7296 13.9087 17.7034 13.9189C17.5852 13.9498 17.4607 13.9466 17.3442 13.9098C17.2277 13.8729 17.124 13.8039 17.0451 13.7106C17.0282 13.6848 17.0052 13.6636 16.9781 13.6489C16.951 13.6343 16.9207 13.6266 16.8899 13.6266C16.8591 13.6266 16.8287 13.6343 16.8016 13.6489C16.7745 13.6636 16.7515 13.6848 16.7347 13.7106C16.6561 13.8037 16.5527 13.8726 16.4366 13.9095C16.3205 13.9463 16.1963 13.9496 16.0784 13.9189C16.0522 13.909 16.0239 13.9057 15.9961 13.9093C15.9682 13.9129 15.9417 13.9232 15.9189 13.9395C15.896 13.9557 15.8775 13.9774 15.865 14.0025C15.8525 14.0277 15.8464 14.0555 15.8472 14.0835C15.8379 14.2083 15.7939 14.328 15.7203 14.4292C15.6467 14.5304 15.5464 14.6091 15.4305 14.6564C15.4032 14.6631 15.3781 14.6764 15.3573 14.6953C15.3365 14.7141 15.3207 14.7379 15.3114 14.7644C15.3021 14.7908 15.2995 14.8192 15.304 14.8469C15.3084 14.8746 15.3197 14.9008 15.3367 14.9231C15.4042 15.0312 15.4399 15.156 15.4399 15.2835C15.4399 15.4109 15.4042 15.5358 15.3367 15.6439C15.3204 15.665 15.3095 15.6898 15.305 15.7162C15.3005 15.7425 15.3026 15.7695 15.311 15.7948C15.3195 15.8202 15.334 15.8431 15.3534 15.8614C15.3728 15.8798 15.3964 15.8931 15.4222 15.9002C15.5387 15.9489 15.6393 16.0291 15.7129 16.1317C15.7865 16.2343 15.8301 16.3554 15.8388 16.4814C15.8534 16.6064 15.9284 16.6751 16.0472 16.6439C16.1732 16.6106 16.3062 16.6146 16.43 16.6552C16.5539 16.6959 16.6633 16.7716 16.7451 16.8731C16.7592 16.892 16.7776 16.9074 16.7988 16.918C16.8199 16.9286 16.8433 16.9342 16.867 16.9342C16.8906 16.9342 16.914 16.9286 16.9351 16.918C16.9563 16.9074 16.9747 16.892 16.9888 16.8731C17.0719 16.768 17.1846 16.6902 17.3124 16.6497C17.4401 16.6092 17.577 16.6079 17.7055 16.646H17.7076ZM17.7076 18.2106C17.7076 17.8751 17.7076 17.5856 17.7076 17.2835C17.7103 17.2529 17.7041 17.2221 17.6896 17.1949C17.6751 17.1678 17.653 17.1455 17.6261 17.1307C17.5991 17.1159 17.5684 17.1093 17.5378 17.1116C17.5071 17.114 17.4778 17.1252 17.4534 17.1439C17.4174 17.1691 17.3846 17.1985 17.3555 17.2314C17.2959 17.2971 17.2233 17.3497 17.1422 17.3856C17.0611 17.4216 16.9734 17.4401 16.8847 17.4401C16.796 17.4401 16.7083 17.4216 16.6272 17.3856C16.5461 17.3497 16.4734 17.2971 16.4138 17.2314C16.3758 17.1799 16.3198 17.1444 16.257 17.1321C16.1941 17.1197 16.1289 17.1314 16.0742 17.1647V18.2064L16.5972 17.7897C16.6331 17.7489 16.6774 17.7163 16.727 17.6939C16.7765 17.6715 16.8303 17.66 16.8847 17.66C16.9391 17.66 16.9928 17.6715 17.0424 17.6939C17.092 17.7163 17.1362 17.7489 17.1722 17.7897L17.7076 18.2106Z" fill="white"></path> <path d="M13.6651 11.7168H17.7817C18.0422 11.7168 18.1547 11.7897 18.1567 11.9584C18.1588 12.1272 18.0422 12.2126 17.7734 12.2126C15.0359 12.2126 12.2977 12.2126 9.55883 12.2126C9.48383 12.2126 9.38591 12.223 9.33591 12.1835C9.29597 12.1558 9.26207 12.1203 9.23628 12.0791C9.21049 12.0379 9.19336 11.9919 9.18591 11.9439C9.18591 11.8668 9.29424 11.7835 9.37132 11.7356C9.4484 11.6876 9.50049 11.7251 9.56715 11.7251L13.6651 11.7168Z" fill="white"></path> <path d="M11.6461 10.6419C11.6731 10.4982 11.7002 10.3357 11.7336 10.1753C11.749 10.1283 11.7492 10.0776 11.7343 10.0305C11.7193 9.98341 11.6899 9.94225 11.6502 9.91278C11.5398 9.8232 11.4419 9.71691 11.3398 9.619C11.2854 9.57616 11.2455 9.5175 11.2257 9.4511C11.206 9.3847 11.2072 9.31381 11.2294 9.24816C11.2532 9.18288 11.2957 9.12609 11.3517 9.08494C11.4077 9.04379 11.4746 9.02014 11.544 9.01694C11.6961 8.9961 11.8502 8.9815 12.0002 8.94817C12.0642 8.93192 12.1194 8.89161 12.1544 8.83566C12.2356 8.69816 12.2981 8.55233 12.3627 8.419C12.3864 8.3552 12.429 8.30022 12.4849 8.26137C12.5408 8.22252 12.6072 8.20166 12.6752 8.20166C12.7433 8.20166 12.8097 8.22252 12.8655 8.26137C12.9214 8.30022 12.9641 8.3552 12.9877 8.419C13.0445 8.51944 13.094 8.62389 13.1356 8.7315C13.1561 8.81055 13.204 8.87975 13.2708 8.92671C13.3376 8.97366 13.4189 8.99529 13.5002 8.98774C13.6102 8.99328 13.7195 9.00725 13.8273 9.02945C13.8936 9.0335 13.9572 9.05724 14.01 9.09771C14.0627 9.13817 14.1021 9.19347 14.1231 9.2565C14.1453 9.31959 14.1476 9.38798 14.1297 9.45242C14.1119 9.51687 14.0747 9.57427 14.0231 9.61691C13.9372 9.70952 13.8453 9.79651 13.7481 9.87733C13.6885 9.91581 13.6441 9.97394 13.6228 10.0417C13.6015 10.1094 13.6046 10.1825 13.6315 10.2482C13.6627 10.369 13.6773 10.4961 13.6981 10.619C13.7141 10.6839 13.7096 10.7521 13.6854 10.8144C13.6611 10.8766 13.6183 10.9299 13.5627 10.9669C13.5072 11.003 13.4425 11.0223 13.3763 11.0223C13.3101 11.0223 13.2453 11.003 13.1898 10.9669C13.0502 10.8898 12.9106 10.8086 12.7731 10.744C12.7156 10.7211 12.6515 10.7211 12.594 10.744C12.4336 10.8169 12.2856 10.9128 12.1252 10.9857C12.071 11.0136 12.0101 11.026 11.9493 11.0215C11.8885 11.017 11.8301 10.9958 11.7805 10.9603C11.731 10.9247 11.6922 10.8762 11.6685 10.8201C11.6448 10.7639 11.637 10.7023 11.6461 10.6419ZM11.9481 9.48569C12.0662 9.59727 12.1642 9.72832 12.2377 9.87316C12.2589 10.0439 12.2526 10.217 12.219 10.3857C12.2797 10.3238 12.3521 10.2746 12.4321 10.241C12.512 10.2074 12.5979 10.1901 12.6846 10.1901C12.7713 10.1901 12.8572 10.2074 12.9371 10.241C13.0171 10.2746 13.0895 10.3238 13.1502 10.3857C13.075 10.2301 13.0629 10.0514 13.1165 9.88715C13.1701 9.72286 13.2852 9.58569 13.4377 9.5044C13.2651 9.48069 13.0975 9.4286 12.9419 9.35024C12.8313 9.23518 12.7423 9.10111 12.6794 8.95443C12.6363 9.11387 12.5407 9.25412 12.4079 9.35243C12.2752 9.45073 12.1132 9.50136 11.9481 9.49611V9.48569Z" fill="white"></path> <path d="M10.6757 13.6211H7.09441C6.88608 13.6211 6.77566 13.5315 6.77774 13.3711C6.77982 13.2107 6.88608 13.1211 7.09441 13.1211H14.234C14.2724 13.1215 14.3107 13.125 14.3486 13.1315C14.408 13.1371 14.4632 13.1646 14.5034 13.2087C14.5436 13.2529 14.5658 13.3104 14.5658 13.3701C14.5658 13.4297 14.5436 13.4873 14.5034 13.5314C14.4632 13.5755 14.408 13.6031 14.3486 13.6086C14.2882 13.6128 14.2277 13.6128 14.1673 13.6086L10.6757 13.6211Z" fill="white"></path> <path d="M10.5065 15.0313H7.15439C7.09397 15.0313 7.01688 15.0501 6.97521 15.021C6.89204 14.9715 6.8248 14.8992 6.78146 14.8126C6.77498 14.7858 6.77389 14.7579 6.77826 14.7307C6.78262 14.7034 6.79236 14.6773 6.8069 14.6539C6.82143 14.6304 6.84047 14.6101 6.86293 14.5941C6.88539 14.578 6.91081 14.5666 6.93771 14.5605C7.00573 14.5432 7.07595 14.5362 7.14605 14.5397H13.869C14.1231 14.5397 14.2461 14.6209 14.2481 14.7876C14.2502 14.9543 14.1273 15.0355 13.8752 15.0355L10.5065 15.0313Z" fill="white"></path> <path d="M7.63745 11.7189C7.83537 11.7189 8.0333 11.7189 8.2333 11.7189C8.26615 11.7152 8.29941 11.7181 8.33107 11.7276C8.36273 11.7372 8.39212 11.753 8.41746 11.7743C8.44279 11.7955 8.46354 11.8217 8.47844 11.8512C8.49334 11.8808 8.50208 11.913 8.50413 11.946C8.5079 11.9807 8.50399 12.0157 8.49267 12.0487C8.48135 12.0817 8.4629 12.1118 8.43864 12.1369C8.41438 12.1619 8.3849 12.1813 8.35229 12.1937C8.31968 12.2061 8.28473 12.2111 8.24995 12.2085C7.83329 12.2085 7.43537 12.2085 7.02704 12.2085C6.99226 12.2111 6.95733 12.2061 6.92472 12.1937C6.8921 12.1813 6.86263 12.1619 6.83836 12.1369C6.8141 12.1118 6.79565 12.0817 6.78433 12.0487C6.77302 12.0157 6.76911 11.9807 6.77288 11.946C6.77288 11.8085 6.87704 11.7231 7.04371 11.7189C7.24163 11.7147 7.43954 11.7189 7.63745 11.7189Z" fill="white"></path> <path d="M16.8868 14.2918C17.151 14.2906 17.405 14.3936 17.5937 14.5785C17.7825 14.7633 17.8908 15.0151 17.8952 15.2793C17.8854 15.537 17.7767 15.7811 17.5915 15.9607C17.4063 16.1403 17.159 16.2416 16.9011 16.2435C16.6431 16.2454 16.3944 16.1477 16.2066 15.9708C16.0189 15.7939 15.9066 15.5514 15.8931 15.2938C15.8931 15.0295 15.9975 14.7759 16.1836 14.5882C16.3697 14.4005 16.6225 14.294 16.8868 14.2918ZM16.8868 14.7876C16.8209 14.7865 16.7554 14.7983 16.694 14.8226C16.6327 14.8468 16.5767 14.8829 16.5293 14.9287C16.4819 14.9746 16.444 15.0293 16.4178 15.0898C16.3916 15.1503 16.3775 15.2154 16.3764 15.2813C16.3739 15.3818 16.4014 15.4807 16.4553 15.5655C16.5092 15.6502 16.5871 15.7171 16.6792 15.7574C16.7712 15.7978 16.8731 15.8098 16.972 15.7921C17.0709 15.7743 17.1623 15.7275 17.2345 15.6577C17.3067 15.5878 17.3565 15.498 17.3775 15.3998C17.3986 15.3016 17.3899 15.1993 17.3526 15.106C17.3153 15.0127 17.2511 14.9326 17.1682 14.8759C17.0852 14.8192 16.9873 14.7884 16.8868 14.7876Z" fill="white"></path> </svg> 