<?xml version="1.0" encoding="UTF-8"?> <svg xmlns="http://www.w3.org/2000/svg" width="25" height="25" viewBox="0 0 25 25" fill="none"> <path d="M12.5 25C19.4036 25 25 19.4036 25 12.5C25 5.59644 19.4036 0 12.5 0C5.59644 0 0 5.59644 0 12.5C0 19.4036 5.59644 25 12.5 25Z" fill="#F6629A"></path> <path d="M12.1225 3.75854H12.8746C12.8995 3.76973 12.9253 3.77877 12.9517 3.7856C13.905 3.89676 14.7834 4.357 15.4174 5.07757C16.0514 5.79813 16.3961 6.72797 16.385 7.68768C16.3825 7.73689 16.3927 7.78596 16.4146 7.8301C16.4365 7.87424 16.4694 7.91197 16.51 7.93976C16.6868 8.07599 16.83 8.251 16.9285 8.45128C17.0271 8.65156 17.0783 8.8718 17.0783 9.095C17.0783 9.3182 17.0271 9.53844 16.9285 9.73872C16.83 9.939 16.6868 10.114 16.51 10.2502C16.4663 10.2832 16.4313 10.3266 16.4084 10.3764C16.3855 10.4262 16.3753 10.4809 16.3788 10.5356C16.3804 10.7971 16.2882 11.0505 16.1188 11.2496C15.9494 11.4488 15.7142 11.5806 15.4559 11.621C15.3059 11.646 15.1475 11.621 14.9975 11.646C14.9131 11.6587 14.8334 11.6932 14.7663 11.746C14.5955 11.8856 14.4413 12.0481 14.2684 12.1856C14.2313 12.2097 14.2018 12.2438 14.1833 12.284C14.1649 12.3242 14.1583 12.3689 14.1642 12.4127C14.1892 12.7065 14.2163 13.0023 14.2246 13.2961C14.2206 13.3536 14.2361 13.4108 14.2686 13.4584C14.3011 13.506 14.3487 13.5413 14.4038 13.5586C15.433 14.0419 16.4642 14.5169 17.4809 15.0169C18.7309 15.6419 19.3559 16.6627 19.3809 18.0502C19.3975 18.9939 19.3809 19.9377 19.3809 20.8814C19.3809 21.146 19.285 21.2377 19.0184 21.2377C14.6684 21.2377 10.3184 21.2377 5.96838 21.2377C5.89228 21.246 5.8155 21.2304 5.74868 21.193C5.68186 21.1557 5.62831 21.0985 5.59546 21.0294V17.7564C5.61213 17.6606 5.63088 17.5668 5.64754 17.4731C5.73064 16.927 5.95131 16.411 6.2888 15.9736C6.62629 15.5363 7.06949 15.1919 7.57671 14.9731C8.5906 14.4898 9.60588 14.0085 10.6225 13.5294C10.6619 13.5171 10.6962 13.4924 10.7203 13.459C10.7443 13.4255 10.7568 13.3852 10.7559 13.344C10.7705 13.0315 10.7955 12.719 10.8267 12.4085C10.834 12.3647 10.8277 12.3197 10.8087 12.2795C10.7897 12.2393 10.7589 12.2058 10.7205 12.1835C10.2895 11.8902 9.95072 11.4806 9.74338 11.0023C9.63921 10.7565 9.53504 10.5564 9.22879 10.5981C9.18919 10.5986 9.15001 10.5901 9.11421 10.5731C8.83205 10.5088 8.57364 10.3665 8.36846 10.1625C8.16328 9.95838 8.0196 9.70075 7.95379 9.41895C7.8847 9.15363 7.89527 8.87385 7.98419 8.6145C8.07311 8.35515 8.23644 8.12772 8.45379 7.96061C8.50382 7.92221 8.54365 7.87213 8.56981 7.81474C8.59596 7.75735 8.60763 7.69438 8.60379 7.63143C8.60454 6.77644 8.88729 5.94562 9.4082 5.26764C9.92911 4.58966 10.6591 4.1024 11.485 3.88143C11.7017 3.8356 11.9121 3.79813 12.1225 3.75854ZM9.51213 14.6814L9.43921 14.7065C8.85379 14.9856 8.26213 15.2502 7.68504 15.5398C6.85171 15.9565 6.29546 16.6252 6.21421 17.5439C6.12463 18.5856 6.17879 19.6273 6.17046 20.6835H11.2684C11.2684 20.6023 11.2871 20.5294 11.2913 20.4564C11.3538 19.4648 11.4121 18.471 11.4746 17.4773C11.5038 17.0043 11.2413 16.6127 11.1434 16.1523C10.9684 16.2815 10.8246 16.3939 10.6767 16.496C10.6441 16.5221 10.6058 16.5403 10.5649 16.549C10.524 16.5577 10.4817 16.5567 10.4412 16.5462C10.4008 16.5357 10.3633 16.5159 10.3319 16.4884C10.3004 16.4609 10.2758 16.4264 10.26 16.3877C10.233 16.3314 10.21 16.2731 10.185 16.2148C9.95588 15.7065 9.73504 15.1981 9.51213 14.6814ZM18.8371 20.6877C18.8371 20.6377 18.8371 20.6044 18.8371 20.571C18.8371 19.7231 18.8496 18.8752 18.8371 18.0273C18.8472 17.4997 18.7029 16.9806 18.422 16.5339C18.1411 16.0871 17.7358 15.7322 17.2559 15.5127C16.7746 15.2689 16.2809 15.0481 15.7975 14.8189L15.458 14.6606C15.4225 14.7356 15.3955 14.7919 15.3705 14.8502L14.7455 16.3211C14.6267 16.594 14.4663 16.6335 14.2246 16.4544L13.8621 16.1835C13.7705 16.4669 13.6746 16.7231 13.6038 16.9856C13.5567 17.148 13.5342 17.3165 13.5371 17.4856C13.5767 18.2919 13.6309 19.0981 13.6809 19.9044C13.6975 20.1627 13.7163 20.4231 13.735 20.6877H18.8371ZM14.0309 11.6418H12.8371C12.608 11.6418 12.4871 11.5419 12.4913 11.3606C12.4955 11.1794 12.6121 11.0981 12.8371 11.096C13.3705 11.096 13.9059 11.096 14.4392 11.096C14.5455 11.096 14.6163 11.071 14.6475 10.9731C14.7517 10.6794 14.9246 10.3898 14.9434 10.0919C14.9913 9.29811 14.9767 8.50228 14.9809 7.70645C14.9762 7.68133 14.9656 7.65765 14.95 7.63738C14.9345 7.61711 14.9143 7.6008 14.8913 7.58977C14.4017 7.41061 13.9038 7.24605 13.508 6.8898L13.3267 7.04605C12.7288 7.54813 12.01 7.74186 11.26 7.85019C10.8434 7.91061 10.4267 7.96479 10.01 8.02104V9.65439C9.98944 10.2931 10.2163 10.9152 10.6433 11.3907C11.0703 11.8662 11.6644 12.1585 12.3017 12.2065C12.6135 12.24 12.9288 12.207 13.2269 12.1097C13.5249 12.0124 13.799 11.8529 14.0309 11.6418ZM14.8517 6.98563C14.6489 6.38806 14.2275 5.8893 13.6723 5.58945C13.117 5.2896 12.4689 5.21084 11.858 5.36896C10.8955 5.62104 9.91421 6.76267 10.0663 7.47101C10.5871 7.39184 11.108 7.32936 11.6309 7.22936C12.2431 7.1405 12.8071 6.84674 13.2309 6.39603C13.4392 6.15436 13.56 6.15853 13.7892 6.39603C14.0867 6.68082 14.4527 6.88393 14.8517 6.98563ZM9.15379 7.57726C9.46004 7.57726 9.46004 7.57731 9.49546 7.31272C9.49546 7.28356 9.49546 7.25644 9.51004 7.22936C9.63966 6.52325 10.0152 5.88588 10.57 5.4303C11.1248 4.97471 11.8231 4.73036 12.5409 4.7406C13.2588 4.75084 13.9498 5.01497 14.4914 5.4862C15.033 5.95742 15.3902 6.60524 15.4996 7.31476C15.5371 7.58976 15.5371 7.58976 15.8434 7.57517C15.7746 6.37309 15.2621 5.41687 14.2267 4.79604C13.7044 4.45694 13.094 4.27887 12.4713 4.28406C11.8486 4.28924 11.2412 4.47743 10.7246 4.82519C9.71421 5.4481 9.21838 6.39393 9.15379 7.57726ZM13.1746 20.6856C13.1059 19.6065 13.0413 18.5481 12.9663 17.4898H12.0121L11.8038 20.6856H13.1746ZM13.6309 12.5606C12.9048 12.844 12.0987 12.844 11.3725 12.5606C11.3475 12.8856 11.3205 13.1856 11.3059 13.496C11.3068 13.5251 11.3137 13.5536 11.3263 13.5798C11.3388 13.606 11.3567 13.6293 11.3788 13.6481C11.7121 13.9065 12.0496 14.1544 12.383 14.4085C12.3952 14.4216 12.4101 14.4321 12.4266 14.4392C12.443 14.4464 12.4608 14.4501 12.4788 14.4501C12.4968 14.4501 12.5145 14.4464 12.531 14.4392C12.5475 14.4321 12.5623 14.4216 12.5746 14.4085C12.9184 14.146 13.2642 13.8919 13.6163 13.6294C13.6382 13.6143 13.6567 13.5949 13.6707 13.5723C13.6847 13.5497 13.6938 13.5244 13.6975 13.4981C13.6767 13.1731 13.6559 12.8773 13.6309 12.5481V12.5606ZM12.4767 15.1606C12.2038 15.369 11.935 15.5648 11.6705 15.771C11.6536 15.7892 11.6414 15.8112 11.6349 15.8352C11.6283 15.8591 11.6277 15.8843 11.633 15.9085C11.7267 16.2231 11.8288 16.5335 11.9371 16.8481C11.9497 16.8722 11.9678 16.8931 11.9898 16.909C12.0119 16.9249 12.0374 16.9354 12.0642 16.9398C12.3531 16.9481 12.6427 16.9481 12.933 16.9398C12.9599 16.9349 12.9854 16.9239 13.0074 16.9077C13.0294 16.8914 13.0474 16.8703 13.06 16.846C13.1663 16.5418 13.2684 16.2335 13.358 15.9231C13.3627 15.9011 13.3622 15.8783 13.3564 15.8566C13.3506 15.8348 13.3397 15.8148 13.3246 15.7981C13.0475 15.5752 12.7642 15.3669 12.4767 15.1523V15.1606ZM12.933 14.8189L14.3371 15.8606L14.9621 14.4189C14.6725 14.2814 14.3975 14.146 14.1163 14.0231C14.0888 14.0164 14.0602 14.0153 14.0323 14.0199C14.0043 14.0246 13.9776 14.0349 13.9538 14.0502C13.6142 14.296 13.283 14.5481 12.933 14.8106V14.8189ZM10.0017 14.4481L10.6267 15.871L12.0288 14.8294C11.683 14.5689 11.3517 14.3169 11.0184 14.0731C10.9994 14.0594 10.9775 14.0502 10.9544 14.0463C10.9313 14.0423 10.9075 14.0436 10.885 14.0502C10.5871 14.1606 10.3017 14.2981 10.0017 14.4398V14.4481ZM9.45379 10.0731V8.1252C9.3221 8.11911 9.19054 8.13979 9.06707 8.18598C8.9436 8.23218 8.83077 8.30292 8.73543 8.39396C8.64008 8.485 8.56418 8.59446 8.51233 8.71567C8.46047 8.83687 8.43374 8.96734 8.43374 9.09917C8.43374 9.231 8.46047 9.36147 8.51233 9.48268C8.56418 9.60388 8.64008 9.71329 8.73543 9.80433C8.83077 9.89537 8.9436 9.96611 9.06707 10.0123C9.19054 10.0585 9.3221 10.0792 9.45379 10.0731ZM15.5371 10.0731C15.7941 10.0731 16.0405 9.97105 16.2221 9.78938C16.4038 9.6077 16.5059 9.36129 16.5059 9.10436C16.5059 8.84743 16.4038 8.60102 16.2221 8.41934C16.0405 8.23767 15.7941 8.13563 15.5371 8.13563V10.0731ZM15.8184 10.6106C15.6975 10.6231 15.5913 10.6294 15.485 10.6461C15.4642 10.6485 15.444 10.6551 15.4258 10.6654C15.4075 10.6758 15.3915 10.6897 15.3788 10.7064C15.3225 10.8273 15.2767 10.9564 15.2288 11.0835C15.2992 11.0931 15.3708 11.0882 15.4392 11.0691C15.5076 11.05 15.5714 11.017 15.6266 10.9723C15.6819 10.9277 15.7274 10.8721 15.7603 10.8092C15.7933 10.7463 15.8131 10.6773 15.8184 10.6064V10.6106Z" fill="white"></path> <path d="M16.156 18.1734C15.8664 18.1734 15.5768 18.1734 15.2872 18.1734C15.0685 18.1734 14.9497 18.0713 14.9497 17.9005C14.9497 17.7296 15.0685 17.6296 15.2893 17.6296H17.0601C17.2789 17.6296 17.3997 17.7297 17.3997 17.9026C17.3997 18.0755 17.2789 18.1713 17.0601 18.1734C16.7518 18.1838 16.4518 18.1734 16.156 18.1734Z" fill="white"></path> </svg> 