<?xml version="1.0" encoding="UTF-8"?> <svg xmlns="http://www.w3.org/2000/svg" width="20" height="20" viewBox="0 0 20 20" fill="none"> <circle cx="10" cy="10" r="10" fill="#F25D96"></circle> <path d="M13.9419 7.54753L10.0957 5.43215C10.0389 5.4009 9.97515 5.38452 9.91033 5.38452C9.84551 5.38452 9.78174 5.4009 9.72494 5.43215L5.8788 7.54753C5.8185 7.58073 5.76821 7.62951 5.73319 7.68877C5.69816 7.74803 5.67969 7.81561 5.67969 7.88445C5.67969 7.95329 5.69816 8.02087 5.73319 8.08013C5.76821 8.13939 5.8185 8.18817 5.8788 8.22137L9.52571 10.2271V14.3498L5.67969 11.923L5.87892 12.8844L9.72494 15.3367C9.78171 15.3681 9.84549 15.3845 9.91033 15.3845C9.97516 15.3845 10.0389 15.3681 10.0957 15.3367L13.9419 13.2214C14.0022 13.1882 14.0525 13.1394 14.0875 13.0801C14.1226 13.0209 14.1411 12.9533 14.1411 12.8844V7.88445C14.1411 7.8156 14.1226 7.74801 14.0875 7.68875C14.0525 7.62948 14.0022 7.58071 13.9419 7.54753ZM9.91033 6.2083L12.9584 7.88445L9.91033 9.5606L6.86226 7.88445L9.91033 6.2083ZM13.3719 12.6571L10.2949 14.3494V10.2268L13.3719 8.53445V12.6571Z" fill="#FBF1F7"></path> </svg> 