<?xml version="1.0" encoding="UTF-8"?> <svg xmlns="http://www.w3.org/2000/svg" width="25" height="25" viewBox="0 0 25 25" fill="none"> <path d="M12.5 24C6.14873 24 1 18.8513 1 12.5C1 6.14873 6.14873 1 12.5 1C18.8513 1 24 6.14873 24 12.5C24 18.8513 18.8513 24 12.5 24Z" fill="#F25D96" stroke="#F25D96" stroke-width="2"></path> <path d="M17.4691 9.63273C15.7816 7.03116 12.3363 6.25773 9.66439 7.87491C7.06283 9.4921 6.21907 13.0077 7.90658 15.6093L8.0472 15.8202L7.4847 17.9296L9.59408 17.3671L9.80502 17.5077C10.7191 17.9999 11.7035 18.2812 12.6878 18.2812C13.7425 18.2812 14.7972 17.9999 15.7113 17.4374C18.3128 15.7499 19.0863 12.3046 17.4691 9.63273V9.63273ZM15.9925 15.0468C15.7113 15.4687 15.3597 15.7499 14.8675 15.8202C14.5863 15.8202 14.2347 15.9609 12.8285 15.3984C11.6331 14.8359 10.6488 13.9218 9.94564 12.8671C9.52377 12.3749 9.31283 11.7421 9.24252 11.1093C9.24252 10.5468 9.45346 10.0546 9.80502 9.70304C9.94564 9.56241 10.0863 9.4921 10.2269 9.4921H10.5785C10.7191 9.4921 10.8597 9.4921 10.93 9.77335C11.0706 10.1249 11.4222 10.9687 11.4222 11.039C11.4925 11.1093 11.4925 11.2499 11.4222 11.3202C11.4925 11.4609 11.4222 11.6015 11.3519 11.6718C11.2816 11.7421 11.2113 11.8827 11.141 11.953C11.0003 12.0234 10.93 12.164 11.0003 12.3046C11.2816 12.7265 11.6331 13.1484 11.9847 13.4999C12.4066 13.8515 12.8285 14.1327 13.3207 14.3437C13.4613 14.414 13.6019 14.414 13.6722 14.2734C13.7425 14.1327 14.0941 13.7812 14.2347 13.6405C14.3753 13.4999 14.4457 13.4999 14.5863 13.5702L15.7113 14.1327C15.8519 14.203 15.9925 14.2734 16.0628 14.3437C16.1332 14.5546 16.1332 14.8359 15.9925 15.0468V15.0468Z" fill="white"></path> </svg> 