<?xml version="1.0" encoding="UTF-8"?> <svg xmlns="http://www.w3.org/2000/svg" width="25" height="25" viewBox="0 0 25 25" fill="none"> <path d="M12.5 25C19.4036 25 25 19.4036 25 12.5C25 5.59644 19.4036 0 12.5 0C5.59644 0 0 5.59644 0 12.5C0 19.4036 5.59644 25 12.5 25Z" fill="#F25D96"></path> <path d="M8.11182 21.0104C7.91292 20.9681 7.71728 20.9117 7.5264 20.8417C7.19401 20.7099 6.90207 20.4931 6.67978 20.213C6.45748 19.933 6.31264 19.5994 6.25973 19.2458C6.25973 19.1979 6.24098 19.152 6.22848 19.0958H5.98682C5.98682 19.2333 5.98682 19.3708 5.98682 19.5125C5.99242 19.5546 5.98817 19.5976 5.97438 19.6378C5.96059 19.6781 5.93765 19.7146 5.90736 19.7445C5.87707 19.7744 5.84026 19.7968 5.79982 19.8101C5.75938 19.8233 5.71642 19.827 5.67432 19.8208C5.33057 19.8208 4.98682 19.8208 4.64515 19.8208C4.44932 19.8208 4.33057 19.7104 4.33265 19.5458C4.33473 19.3812 4.45765 19.2812 4.65348 19.2792C4.91182 19.2792 5.17015 19.2792 5.43473 19.2792V19.0937C5.2139 19.0937 5.00557 19.0937 4.79515 19.0937C4.7151 19.104 4.63377 19.0957 4.55742 19.0696C4.48107 19.0435 4.41173 19.0001 4.35477 18.943C4.2978 18.8858 4.25473 18.8163 4.22886 18.7399C4.203 18.6634 4.19503 18.5821 4.20557 18.5021C4.20557 17.9396 4.20557 17.3791 4.20557 16.8166C4.21365 16.7735 4.20615 16.7289 4.1844 16.6907C4.16266 16.6526 4.12808 16.6233 4.08682 16.6083C4.04722 16.5847 4.01387 16.552 3.98958 16.5128C3.96529 16.4737 3.95076 16.4292 3.94723 16.3833C3.95294 16.3352 3.96892 16.289 3.99408 16.2476C4.01924 16.2063 4.053 16.1709 4.09307 16.1437C4.13088 16.1294 4.16266 16.1026 4.18313 16.0677C4.20359 16.0329 4.21151 15.9921 4.20557 15.9521C4.20557 15.7437 4.20557 15.5354 4.20557 15.3271C4.1264 15.3271 4.06182 15.3271 3.99724 15.3271H2.56182C2.33473 15.3271 2.20973 15.2229 2.21182 15.05C2.2139 14.8771 2.33681 14.7896 2.55348 14.7854C2.59515 14.7854 2.63682 14.7854 2.67848 14.7854H4.18473V12.1312H3.27223C3.0639 12.1312 2.93682 12.0291 2.93473 11.8625C2.93265 11.6958 3.05973 11.5895 3.26598 11.5875H4.17224C4.18352 11.5736 4.19265 11.5582 4.19931 11.5416C4.22712 11.3692 4.32046 11.2142 4.45983 11.109C4.59919 11.0038 4.77382 10.9566 4.94724 10.9771H11.7431C11.6952 10.7041 11.6368 10.4479 11.6035 10.1875C11.4888 9.27505 11.6525 8.3493 12.0729 7.53146C12.4934 6.71363 13.151 6.04184 13.9597 5.60413C14.0117 5.58446 14.0556 5.54792 14.0843 5.50032C14.1131 5.45271 14.1249 5.3968 14.1181 5.34162C14.1056 5.15412 14.1181 4.96664 14.1181 4.78122C14.087 4.61015 14.1205 4.43361 14.2121 4.28582C14.3037 4.13803 14.4469 4.02948 14.6139 3.9812H17.6847C17.8507 4.03205 17.992 4.14262 18.0812 4.29151C18.1705 4.44041 18.2014 4.61711 18.1681 4.78748C18.1556 4.91248 18.1806 5.04374 18.1681 5.16666C18.1539 5.2196 18.1503 5.27479 18.1575 5.32911C18.1648 5.38344 18.1826 5.43581 18.2101 5.48323C18.2376 5.53064 18.2741 5.57214 18.3177 5.6054C18.3612 5.63866 18.4109 5.66303 18.4639 5.67706C18.5594 5.71584 18.6475 5.77082 18.7243 5.83957C19.0076 6.08124 19.291 6.32291 19.5576 6.57916C19.5854 6.60302 19.6077 6.63257 19.6229 6.66583C19.6382 6.69909 19.6461 6.73524 19.6461 6.77183C19.6461 6.80842 19.6382 6.84462 19.6229 6.87788C19.6077 6.91114 19.5854 6.94069 19.5576 6.96455C19.5308 6.98887 19.4993 7.00766 19.4651 7.01979C19.431 7.03191 19.3947 7.03713 19.3585 7.0352C19.3223 7.03326 19.2868 7.02419 19.2542 7.00849C19.2215 6.9928 19.1922 6.97079 19.1681 6.94375C19.1451 6.925 19.1264 6.89998 19.1056 6.87915C18.6919 6.42562 18.1784 6.07453 17.6056 5.85361C17.0329 5.63269 16.4167 5.54797 15.8056 5.60621C15.2054 5.65822 14.6244 5.84371 14.1051 6.14907C13.5857 6.45442 13.1412 6.87195 12.8039 7.37114C12.4667 7.87034 12.2452 8.43859 12.1558 9.03435C12.0663 9.63012 12.1111 10.2383 12.2868 10.8145C12.2951 10.8689 12.3244 10.9177 12.3685 10.9505C12.4126 10.9833 12.4678 10.9973 12.5222 10.9896C13.6368 10.9896 14.7493 10.9896 15.8556 10.9896C16.0451 10.979 16.2344 11.0133 16.4082 11.0897C16.5819 11.166 16.7352 11.2823 16.8556 11.4291C17.1306 11.7562 17.4285 12.0541 17.7181 12.3812L18.3181 13.0354C18.3532 13.0179 18.3872 12.9984 18.4201 12.9771C18.9382 12.624 19.3662 12.1543 19.6698 11.6058C19.9733 11.0573 20.144 10.4452 20.1681 9.81871C20.2041 9.14112 20.0641 8.46577 19.7618 7.85831C19.7396 7.8256 19.7248 7.78849 19.7182 7.74951C19.7117 7.71054 19.7136 7.67063 19.7239 7.63248C19.7342 7.59432 19.7526 7.55882 19.7778 7.52841C19.803 7.498 19.8345 7.47338 19.8701 7.45624C19.9057 7.43891 19.9446 7.42964 19.9841 7.42908C20.0237 7.42852 20.0628 7.43667 20.0989 7.45298C20.1349 7.4693 20.1668 7.49334 20.1925 7.52343C20.2181 7.55352 20.2368 7.58889 20.2472 7.62703C20.3308 7.79394 20.4005 7.96749 20.4556 8.14583C20.5535 8.51042 20.6264 8.88121 20.7118 9.24996V10.0104C20.6984 10.0548 20.688 10.1 20.6806 10.1458C20.6125 10.785 20.4103 11.4027 20.0872 11.9584C19.7641 12.5141 19.3274 12.9954 18.8056 13.3708C18.7722 13.3958 18.7431 13.425 18.7056 13.4562L18.816 13.5854C19.3076 14.1229 19.7952 14.6646 20.291 15.1979C20.487 15.3857 20.6337 15.619 20.7181 15.8771V18.4833C20.5097 19.1562 19.9556 19.1083 19.4202 19.0916C19.4056 19.1458 19.3931 19.1791 19.3868 19.2146C19.3279 19.6379 19.1402 20.0329 18.8491 20.346C18.558 20.6591 18.1777 20.875 17.7597 20.9645L17.5368 21.0187H17.1452C17.1128 21.0055 17.0793 20.9951 17.0451 20.9875C16.7725 20.9501 16.5101 20.8584 16.2736 20.7178C16.037 20.5771 15.8311 20.3904 15.6681 20.1687C15.4362 19.8585 15.2922 19.4914 15.2514 19.1062H10.4201C10.3451 19.3479 10.2847 19.575 10.2014 19.7937C10.1907 19.8287 10.1727 19.861 10.1486 19.8885C10.1244 19.916 10.0948 19.9381 10.0615 19.9532C10.0282 19.9684 9.99208 19.9763 9.9555 19.9765C9.91893 19.9766 9.88273 19.969 9.84932 19.9542C9.81572 19.9405 9.7852 19.9202 9.75958 19.8946C9.73395 19.8689 9.71375 19.8384 9.70014 19.8048C9.68654 19.7712 9.67983 19.7352 9.6804 19.6989C9.68098 19.6627 9.68883 19.6269 9.70348 19.5937C9.71807 19.5479 9.74098 19.5062 9.75557 19.4604C9.86004 19.1791 9.88001 18.8733 9.81303 18.5808C9.74605 18.2883 9.59504 18.0217 9.37857 17.8139C9.16209 17.606 8.88959 17.466 8.59458 17.411C8.29957 17.3559 7.99491 17.3883 7.71807 17.5042C7.43441 17.6153 7.19185 17.8111 7.02337 18.0649C6.85489 18.3187 6.76867 18.6184 6.7764 18.9229C6.77533 19.1832 6.84034 19.4394 6.96534 19.6676C7.09033 19.8959 7.27122 20.0887 7.49107 20.228C7.71091 20.3673 7.96251 20.4485 8.2223 20.464C8.48208 20.4795 8.74155 20.4288 8.9764 20.3167C9.04056 20.2776 9.11107 20.2501 9.18473 20.2354C9.2458 20.2288 9.30715 20.2449 9.3571 20.2806C9.40705 20.3163 9.4421 20.3692 9.45557 20.4292C9.46724 20.4591 9.47283 20.491 9.472 20.5232C9.47118 20.5553 9.46396 20.5869 9.45077 20.6162C9.43757 20.6455 9.41868 20.6718 9.39518 20.6937C9.37168 20.7156 9.34405 20.7326 9.3139 20.7437C9.04723 20.8479 8.77223 20.9291 8.49932 21.0187L8.11182 21.0104ZM12.5452 17.277V11.5375C12.4952 11.5375 12.4535 11.5375 12.4118 11.5375C9.93126 11.5375 7.45001 11.5375 4.96806 11.5375C4.79098 11.5375 4.74307 11.6062 4.74307 11.775C4.74307 12.7167 4.74307 13.65 4.74307 14.6C4.74307 14.6521 4.74307 14.7041 4.74307 14.777H5.76181C6.04098 14.777 6.17848 14.8604 6.17848 15.0396C6.17848 15.2187 6.04515 15.3187 5.76181 15.3187C5.4264 15.3187 5.09098 15.3187 4.74932 15.3187V16.1125H5.00765C5.30765 16.1125 5.60973 16.1125 5.90973 16.1125C5.94627 16.1119 5.98254 16.1187 6.01634 16.1326C6.05013 16.1465 6.08073 16.1672 6.10627 16.1933C6.13182 16.2194 6.15177 16.2505 6.1649 16.2846C6.17803 16.3187 6.18407 16.3551 6.18265 16.3916C6.17739 16.4614 6.14588 16.5267 6.09448 16.5742C6.04308 16.6218 5.97558 16.6481 5.90556 16.6479C5.82848 16.6479 5.74931 16.6479 5.67223 16.6479H4.75348V17.2729H6.86182C6.89154 17.277 6.92168 17.277 6.9514 17.2729C7.01268 17.2527 7.07141 17.2254 7.1264 17.1917C7.47368 16.9529 7.88519 16.8251 8.30661 16.8251C8.72803 16.8251 9.13954 16.9529 9.48681 17.1917C9.53768 17.2327 9.59903 17.2586 9.6639 17.2666C10.6222 17.2791 11.5743 17.277 12.5452 17.277ZM13.1056 17.2625C13.1272 17.2696 13.1496 17.2745 13.1722 17.277C14.0993 17.277 15.0264 17.277 15.9556 17.277C16.0311 17.2679 16.1029 17.2392 16.1639 17.1937C16.4636 16.9782 16.818 16.8514 17.1864 16.8278C17.5548 16.8043 17.9225 16.8848 18.2472 17.0604C18.5492 17.2272 18.8926 17.3038 19.2368 17.2812C19.3931 17.2812 19.5514 17.2812 19.7076 17.2812H20.1681V16.8896C19.9597 16.8729 19.7243 16.9104 19.7076 16.6292C19.6889 16.3042 19.9639 16.35 20.1618 16.3291C20.1973 16.2009 20.1952 16.0651 20.1556 15.938C20.1161 15.811 20.0409 15.698 19.9389 15.6125C19.8797 15.5603 19.8265 15.5016 19.7806 15.4375C19.7493 15.3936 19.7071 15.3588 19.658 15.3365C19.609 15.3142 19.555 15.3052 19.5014 15.3104C19.0264 15.3104 18.5493 15.3104 18.0743 15.3104C17.7722 15.3104 17.4722 15.3104 17.1701 15.3104C17.123 15.3148 17.0755 15.3067 17.0325 15.2869C16.9895 15.2672 16.9525 15.2364 16.9253 15.1977C16.898 15.159 16.8814 15.1138 16.8772 15.0666C16.873 15.0195 16.8814 14.972 16.9014 14.9291C16.93 14.8721 16.9764 14.8259 17.0334 14.7974C17.0905 14.7689 17.1553 14.7595 17.2181 14.7708H19.1597C19.0889 14.6875 19.0514 14.6417 19.0118 14.5979C18.2201 13.7292 17.4139 12.8729 16.6431 11.9854C16.5266 11.8225 16.3684 11.6939 16.1851 11.6132C16.0018 11.5326 15.8002 11.5028 15.6014 11.5271C15.3384 11.5427 15.0748 11.5427 14.8118 11.5271V14.7645H15.0389C15.3827 14.7645 15.7264 14.7645 16.0701 14.7645C16.105 14.7639 16.1397 14.7705 16.172 14.7838C16.2042 14.797 16.2335 14.8168 16.2579 14.8417C16.2822 14.8667 16.3013 14.8964 16.3138 14.929C16.3263 14.9616 16.332 14.9963 16.3306 15.0312C16.3318 15.0988 16.3069 15.1642 16.2611 15.2139C16.2153 15.2635 16.1522 15.2936 16.0847 15.2979C16.0362 15.301 15.9875 15.301 15.9389 15.2979C15.5972 15.2979 15.2535 15.2979 14.9097 15.2979C14.466 15.2979 14.2577 15.0896 14.2577 14.6437C14.2577 13.6792 14.2577 12.7125 14.2577 11.7479V11.5395H13.1014L13.1056 17.2625ZM15.8014 18.9167C15.8018 19.2212 15.8926 19.5189 16.0622 19.7719C16.2318 20.0249 16.4726 20.2219 16.7542 20.338C17.0358 20.454 17.3455 20.4839 17.6442 20.424C17.9428 20.364 18.2169 20.2168 18.4318 20.001C18.6468 19.7852 18.7929 19.5105 18.8516 19.2116C18.9104 18.9127 18.8792 18.6031 18.762 18.322C18.6447 18.0409 18.4468 17.8009 18.1931 17.6323C17.9394 17.4637 17.6414 17.3741 17.3368 17.375C16.9292 17.3772 16.539 17.5405 16.2513 17.8293C15.9637 18.1181 15.8019 18.509 15.8014 18.9167ZM17.6264 5.28125C17.6264 5.09167 17.6264 4.91665 17.6264 4.74165C17.6264 4.56665 17.5889 4.53332 17.4181 4.53332C17.1431 4.54581 16.866 4.53332 16.5847 4.53332C15.9993 4.53332 15.416 4.53332 14.8326 4.53332C14.7722 4.53332 14.6639 4.58955 14.6618 4.62705C14.6451 4.83539 14.6618 5.05416 14.6618 5.27291C16.1618 4.97291 16.1618 4.97292 17.6264 5.28125ZM10.3806 18.5291H12.5452V17.8333H10.1181L10.3806 18.5291ZM13.1118 17.8292V18.5333H15.2702L15.5368 17.8292H13.1118ZM4.7514 18.5354H6.24098L6.50765 17.8354H4.7514V18.5354ZM19.1493 17.8312C19.2264 18.0521 19.2972 18.2666 19.3764 18.4771C19.3879 18.4951 19.4035 18.5102 19.422 18.5211C19.4405 18.532 19.4613 18.5383 19.4827 18.5396C19.6389 18.5396 19.7952 18.5396 19.9514 18.5396C19.9805 18.5425 20.0098 18.5393 20.0375 18.5301C20.0653 18.5209 20.0908 18.5061 20.1124 18.4864C20.134 18.4668 20.1512 18.4428 20.163 18.4161C20.1747 18.3893 20.1807 18.3604 20.1806 18.3312C20.1806 18.1646 20.1806 17.9979 20.1806 17.8271L19.1493 17.8312Z" fill="white"></path> <path d="M2.99539 13.7061C2.83289 13.7061 2.6704 13.7061 2.50998 13.7061C2.47379 13.7083 2.43751 13.7033 2.40327 13.6914C2.36904 13.6795 2.33752 13.6608 2.31056 13.6366C2.2836 13.6123 2.26174 13.5829 2.24626 13.5502C2.23078 13.5174 2.22198 13.4819 2.22039 13.4456C2.21866 13.4093 2.22444 13.373 2.23735 13.339C2.25027 13.305 2.27006 13.2741 2.29547 13.2481C2.32088 13.2221 2.35138 13.2016 2.38506 13.1879C2.41874 13.1742 2.45488 13.1676 2.49123 13.1685C2.8204 13.1685 3.15165 13.1685 3.48081 13.1685C3.55209 13.171 3.61946 13.2017 3.6681 13.2539C3.71674 13.306 3.74267 13.3754 3.74019 13.4467C3.7377 13.5179 3.707 13.5853 3.65485 13.6339C3.60269 13.6826 3.53334 13.7085 3.46206 13.7061C3.30581 13.7102 3.14956 13.7061 2.99539 13.7061Z" fill="white"></path> <path d="M2.84565 16.6418C2.72481 16.6418 2.60399 16.6418 2.48524 16.6418C2.45043 16.6423 2.41587 16.6359 2.38362 16.6227C2.35138 16.6096 2.32212 16.5901 2.2976 16.5654C2.27309 16.5407 2.25381 16.5113 2.24095 16.479C2.22808 16.4466 2.22189 16.412 2.22273 16.3772C2.22047 16.3438 2.22501 16.3103 2.23606 16.2787C2.24711 16.2471 2.26445 16.218 2.28704 16.1933C2.30962 16.1685 2.33698 16.1486 2.36746 16.1348C2.39795 16.1209 2.43092 16.1134 2.4644 16.1126C2.72273 16.1001 2.98107 16.1001 3.23732 16.1126C3.27096 16.1129 3.30421 16.1199 3.33504 16.1334C3.36586 16.1469 3.39362 16.1665 3.41662 16.1911C3.43962 16.2156 3.45738 16.2446 3.46882 16.2763C3.48025 16.3079 3.48513 16.3416 3.48315 16.3751C3.48428 16.4099 3.47836 16.4446 3.46575 16.477C3.45314 16.5095 3.43409 16.539 3.40977 16.564C3.38545 16.5889 3.35634 16.6086 3.3242 16.622C3.29206 16.6354 3.25755 16.6421 3.22274 16.6418C3.09774 16.648 2.97898 16.6418 2.84565 16.6418Z" fill="white"></path> <path d="M8.3062 19.7853C8.13356 19.7837 7.96529 19.7309 7.82267 19.6336C7.68005 19.5363 7.56948 19.3989 7.50494 19.2388C7.4404 19.0786 7.42479 18.903 7.46009 18.734C7.49539 18.565 7.58001 18.4103 7.70325 18.2894C7.82648 18.1685 7.9828 18.0868 8.15244 18.0547C8.32208 18.0227 8.49742 18.0416 8.65628 18.1092C8.81515 18.1768 8.95041 18.29 9.04495 18.4344C9.1395 18.5789 9.18908 18.7481 9.18744 18.9208C9.18663 19.0355 9.16316 19.1489 9.11838 19.2545C9.0736 19.3601 9.00839 19.4559 8.9265 19.5362C8.84461 19.6166 8.74765 19.6799 8.6412 19.7227C8.53475 19.7654 8.42091 19.7867 8.3062 19.7853ZM8.3062 18.5853C8.2627 18.5859 8.21973 18.595 8.17975 18.6121C8.13976 18.6293 8.10355 18.6541 8.07318 18.6853C8.0428 18.7164 8.01886 18.7533 8.00272 18.7937C7.98658 18.8341 7.97856 18.8773 7.97911 18.9208C7.97911 18.9629 7.98741 19.0046 8.00353 19.0436C8.01966 19.0825 8.04329 19.1178 8.07308 19.1476C8.10287 19.1774 8.13824 19.201 8.17716 19.2172C8.21609 19.2333 8.25781 19.2416 8.29995 19.2416C8.34342 19.243 8.38673 19.2357 8.42735 19.2202C8.46797 19.2046 8.50508 19.1811 8.53651 19.151C8.56794 19.121 8.59305 19.0849 8.61038 19.045C8.62771 19.0051 8.63691 18.9622 8.63745 18.9187C8.63588 18.8326 8.60126 18.7504 8.54076 18.6891C8.48026 18.6278 8.39852 18.5922 8.31245 18.5895L8.3062 18.5853Z" fill="white"></path> <path d="M8.35975 14.1729C8.10142 13.8917 7.82017 13.5771 7.52642 13.2771C7.191 12.9354 7.18892 12.9021 7.52642 12.5521C7.6562 12.3994 7.82895 12.2893 8.02218 12.2362C8.2154 12.183 8.42014 12.1893 8.60975 12.2542C8.76521 12.3101 8.90716 12.3981 9.02642 12.5125C9.39934 12.8542 9.75767 13.2125 10.116 13.5687C10.2029 13.6446 10.2725 13.7383 10.3198 13.8436C10.3671 13.9488 10.391 14.063 10.39 14.1784C10.3891 14.2938 10.3631 14.4076 10.314 14.512C10.2649 14.6164 10.1938 14.709 10.1056 14.7833C9.7535 15.1312 9.40142 15.4771 9.04517 15.825C8.9473 15.9304 8.82834 16.0141 8.696 16.0705C8.56367 16.127 8.42094 16.1549 8.27709 16.1525C8.13325 16.1502 7.99151 16.1176 7.8611 16.0569C7.73069 15.9961 7.61453 15.9086 7.52017 15.8C7.17642 15.45 7.18059 15.4146 7.52017 15.0625C7.82642 14.7604 8.1035 14.4479 8.35975 14.1729ZM7.94308 12.9125L7.95976 12.9375L8.966 13.925C9.00728 13.9516 9.04123 13.9881 9.06474 14.0312C9.08825 14.0744 9.10057 14.1227 9.10057 14.1718C9.10057 14.221 9.08825 14.2693 9.06474 14.3124C9.04123 14.3555 9.00728 14.3921 8.966 14.4187C8.75767 14.6271 8.54934 14.8354 8.341 15.0437C8.20975 15.1729 8.07434 15.2979 7.94101 15.425C8.17434 15.6479 8.43267 15.6666 8.63892 15.4708C9.02226 15.1125 9.39517 14.7437 9.76809 14.375C9.79715 14.352 9.82062 14.3226 9.83676 14.2893C9.8529 14.2559 9.86129 14.2193 9.86129 14.1823C9.86129 14.1452 9.8529 14.1086 9.83676 14.0752C9.82062 14.0419 9.79715 14.0126 9.76809 13.9895C9.38684 13.6125 9.00767 13.2333 8.61392 12.8687C8.56831 12.8257 8.51433 12.7926 8.45534 12.7714C8.39635 12.7502 8.33361 12.7413 8.27106 12.7454C8.20851 12.7495 8.14747 12.7665 8.09176 12.7952C8.03604 12.824 7.98686 12.8639 7.94726 12.9125H7.94308Z" fill="white"></path> <path d="M5.90615 13.7979C6.06865 13.7979 6.23116 13.7979 6.39366 13.7979C6.43108 13.7946 6.46878 13.7992 6.50435 13.8112C6.53993 13.8233 6.57261 13.8426 6.60031 13.868C6.62801 13.8934 6.65014 13.9242 6.66527 13.9586C6.6804 13.993 6.68821 14.0301 6.68821 14.0677C6.68821 14.1053 6.6804 14.1424 6.66527 14.1768C6.65014 14.2112 6.62801 14.2421 6.60031 14.2674C6.57261 14.2928 6.53993 14.3121 6.50435 14.3242C6.46878 14.3363 6.43108 14.3408 6.39366 14.3375C6.07699 14.3375 5.75824 14.3375 5.43949 14.3375C5.37203 14.3316 5.30924 14.3006 5.2635 14.2506C5.21775 14.2007 5.19238 14.1354 5.19238 14.0677C5.19238 14 5.21775 13.9347 5.2635 13.8848C5.30924 13.8348 5.37203 13.8038 5.43949 13.7979C5.59365 13.7979 5.7499 13.7979 5.90615 13.7979Z" fill="white"></path> <path d="M17.3311 19.7854C17.1582 19.7845 16.9894 19.7324 16.8462 19.6355C16.703 19.5386 16.5918 19.4014 16.5267 19.2412C16.4615 19.081 16.4455 18.9051 16.4805 18.7358C16.5155 18.5664 16.6 18.4113 16.7233 18.2901C16.8466 18.1688 17.0031 18.0869 17.173 18.0548C17.3429 18.0226 17.5185 18.0417 17.6775 18.1095C17.8366 18.1772 17.972 18.2907 18.0664 18.4355C18.1609 18.5804 18.2102 18.75 18.2082 18.9229C18.2085 19.0375 18.1859 19.1509 18.1417 19.2567C18.0976 19.3624 18.0327 19.4583 17.951 19.5386C17.8693 19.6189 17.7724 19.6822 17.666 19.7245C17.5595 19.7669 17.4457 19.7876 17.3311 19.7854ZM17.3415 19.2416C17.385 19.2422 17.4281 19.234 17.4682 19.2173C17.5084 19.2006 17.5447 19.1759 17.575 19.1447C17.6052 19.1135 17.6287 19.0764 17.6441 19.0358C17.6595 18.9951 17.6664 18.9517 17.6644 18.9083C17.6624 18.8258 17.6293 18.7471 17.5718 18.688C17.5142 18.6289 17.4364 18.5937 17.354 18.5895C17.266 18.589 17.1813 18.6233 17.1184 18.685C17.0556 18.7466 17.0197 18.8307 17.0186 18.9187C17.0197 19.004 17.054 19.0855 17.1144 19.1458C17.1747 19.2062 17.2562 19.2405 17.3415 19.2416Z" fill="white"></path> </svg> 