<?xml version="1.0" encoding="UTF-8"?> <svg xmlns="http://www.w3.org/2000/svg" width="25" height="25" viewBox="0 0 25 25" fill="none"> <path d="M12.5 24C6.14873 24 1 18.8513 1 12.5C1 6.14873 6.14873 1 12.5 1C18.8513 1 24 6.14873 24 12.5C24 18.8513 18.8513 24 12.5 24Z" fill="#F25D96" stroke="#F25D96" stroke-width="2"></path> <path fill-rule="evenodd" clip-rule="evenodd" d="M17.9461 15.5765L13.1867 13.0175L12.3133 13.475C12.2504 13.508 12.1804 13.5252 12.1094 13.5252C12.0384 13.5252 11.9684 13.508 11.9055 13.475L10.7448 12.867L10.7843 12.9404L6.25255 15.377L6.25293 15.391C6.28047 15.8766 6.49279 16.3333 6.84635 16.6674C7.19991 17.0014 7.66789 17.1875 8.1543 17.1875H16.0645L16.1723 17.1846C16.6579 17.157 17.1146 16.9447 17.4486 16.5912C17.7149 16.3094 17.8871 15.955 17.9461 15.5765ZM17.9688 14.4533V10.5125L14.2563 12.4572L17.9688 14.4533ZM6.25 10.5125V14.243L9.76432 12.3534L6.25 10.5125ZM8.1543 7.8125H16.0645C16.5365 7.81244 16.9917 7.98769 17.3418 8.30426C17.692 8.62082 17.912 9.05614 17.9594 9.52578L12.1094 12.5902L6.25938 9.52578C6.3048 9.07479 6.5096 8.6548 6.83696 8.34129C7.16433 8.02778 7.59278 7.84132 8.04531 7.81543L8.1543 7.8125Z" fill="white"></path> </svg> 