<?xml version="1.0" encoding="UTF-8"?> <svg xmlns="http://www.w3.org/2000/svg" width="20" height="20" viewBox="0 0 20 20" fill="none"> <circle cx="10" cy="10" r="10" fill="#F25D96"></circle> <path d="M8.15482 14.6153C7.9009 14.6153 7.6836 14.525 7.50293 14.3444C7.32196 14.1634 7.23147 13.9461 7.23147 13.6922C7.23147 13.4384 7.32196 13.221 7.50293 13.0401C7.6836 12.8594 7.9009 12.7691 8.15482 12.7691C8.40874 12.7691 8.62604 12.8594 8.80671 13.0401C8.98768 13.221 9.07817 13.4384 9.07817 13.6922C9.07817 13.9461 8.98768 14.1634 8.80671 14.3444C8.62604 14.525 8.40874 14.6153 8.15482 14.6153ZM12.7716 14.6153C12.5177 14.6153 12.3004 14.525 12.1197 14.3444C11.9387 14.1634 11.8482 13.9461 11.8482 13.6922C11.8482 13.4384 11.9387 13.221 12.1197 13.0401C12.3004 12.8594 12.5177 12.7691 12.7716 12.7691C13.0255 12.7691 13.243 12.8594 13.4239 13.0401C13.6046 13.221 13.6949 13.4384 13.6949 13.6922C13.6949 13.9461 13.6046 14.1634 13.4239 14.3444C13.243 14.525 13.0255 14.6153 12.7716 14.6153ZM7.7624 7.23068L8.87042 9.53837H12.1021L13.3718 7.23068H7.7624ZM8.15482 12.3076C7.80856 12.3076 7.54695 12.1556 7.36997 11.8516C7.193 11.5479 7.1853 11.2461 7.34689 10.9461L7.97015 9.81529L6.30812 6.3076H5.8349C5.70409 6.3076 5.59637 6.26329 5.51173 6.17468C5.42709 6.08637 5.38477 5.97683 5.38477 5.84606C5.38477 5.71529 5.42909 5.6056 5.51773 5.51698C5.60606 5.42868 5.71563 5.38452 5.84644 5.38452H6.59666C6.68131 5.38452 6.7621 5.4076 6.83904 5.45375C6.91599 5.49991 6.9737 5.56529 7.01217 5.64991L7.3238 6.3076H14.1335C14.3413 6.3076 14.4836 6.38452 14.5606 6.53837C14.6375 6.69221 14.6337 6.85375 14.549 7.02298L12.9101 9.97683C12.8254 10.1307 12.7139 10.2499 12.5754 10.3345C12.4369 10.4191 12.2791 10.4614 12.1021 10.4614H8.66266L8.15482 11.3845H13.2448C13.3756 11.3845 13.4833 11.4287 13.568 11.517C13.6526 11.6056 13.6949 11.7153 13.6949 11.8461C13.6949 11.9768 13.6506 12.0864 13.562 12.1747C13.4736 12.2633 13.3641 12.3076 13.2333 12.3076H8.15482Z" fill="#FBF1F7"></path> </svg> 