<?xml version="1.0" encoding="UTF-8"?> <svg xmlns="http://www.w3.org/2000/svg" width="25" height="25" viewBox="0 0 25 25" fill="none"> <path d="M12.5 24C6.14873 24 1 18.8513 1 12.5C1 6.14873 6.14873 1 12.5 1C18.8513 1 24 6.14873 24 12.5C24 18.8513 18.8513 24 12.5 24Z" fill="#F25D96" stroke="#F25D96" stroke-width="2"></path> <path d="M6.32806 12.2721C9.6835 10.8102 11.921 9.84641 13.0405 9.38076C16.237 8.05123 16.9012 7.82028 17.3341 7.81257C17.4293 7.81098 17.6422 7.83458 17.7801 7.94648C17.8966 8.04096 17.9286 8.1686 17.9439 8.25818C17.9593 8.34777 17.9784 8.55184 17.9632 8.7113C17.79 10.5313 17.0405 14.948 16.6591 16.9865C16.4978 17.849 16.1801 18.1383 15.8725 18.1666C15.2041 18.2281 14.6966 17.7248 14.0492 17.3004C13.0361 16.6364 12.4638 16.223 11.4805 15.575C10.3441 14.8261 11.0808 14.4145 11.7284 13.7419C11.8979 13.5658 14.8429 10.8871 14.8999 10.6441C14.9071 10.6137 14.9137 10.5004 14.8464 10.4406C14.7791 10.3808 14.6798 10.4012 14.6081 10.4175C14.5065 10.4405 12.8881 11.5102 9.75304 13.6265C9.29368 13.9419 8.8776 14.0956 8.50481 14.0876C8.09384 14.0787 7.3033 13.8552 6.71561 13.6641C5.99479 13.4298 5.42189 13.306 5.47178 12.908C5.49776 12.7008 5.78319 12.4888 6.32806 12.2721Z" fill="white"></path> </svg> 